<?xml version="1.0" encoding="UTF-8"?>
<svg xmlns="http://www.w3.org/2000/svg" xmlns:xlink="http://www.w3.org/1999/xlink" width="2001" height="2001" viewBox="0 0 2001 2001">
<path fill-rule="evenodd" fill="rgb(84.375%, 86.71875%, 92.1875%)" fill-opacity="1" d="M 1301.839844 1135.824219 C 1297.851562 1155.035156 1267.191406 1197.007812 1254.039062 1213.023438 C 1191.71875 1288.976562 1094.269531 1334.3125 995.464844 1331.90625 C 906.925781 1329.75 836.621094 1299.792969 771.644531 1241.148438 C 750.742188 1222.28125 730.945312 1195.132812 715.796875 1171.296875 C 708.65625 1160.0625 695.65625 1139.363281 698.253906 1126.125 C 701.53125 1109.398438 720.75 1098.828125 736.46875 1106.675781 C 755.972656 1116.410156 760.984375 1161.730469 820.210938 1211.441406 C 954.296875 1323.988281 1152.949219 1289.496094 1241.449219 1136.695312 C 1249.148438 1123.40625 1253.820312 1105.996094 1272.019531 1104.214844 C 1289.289062 1102.523438 1305.398438 1118.734375 1301.839844 1135.824219 Z M 970.339844 855.390625 Z M 980.007812 670.351562 C 1016.738281 669.089844 1056.351562 670.910156 1091.460938 682.53125 C 1123.019531 692.96875 1150.078125 702.929688 1178.121094 721.539062 C 1232.191406 757.449219 1267.140625 796.429688 1296.929688 854.121094 C 1301.550781 863.050781 1304.480469 869.480469 1300.488281 879.75 C 1298.039062 886.058594 1291.171875 892.878906 1285.058594 895.691406 C 1266.921875 904.058594 1254.089844 890.148438 1246.878906 875.46875 C 1234.96875 851.238281 1213.441406 821.378906 1193.839844 802.78125 C 1143.738281 755.230469 1088.960938 731.679688 1020.429688 724.679688 C 957.167969 718.21875 877.890625 742.589844 828.765625 783.269531 C 761.652344 838.839844 761.316406 869.808594 745.390625 888.441406 C 734.507812 901.171875 712.925781 900.519531 703.277344 886.621094 C 691.382812 869.480469 701.675781 856 709.972656 840.449219 C 731.734375 799.660156 761.847656 768.199219 797.035156 738.960938 C 843.46875 700.378906 920.078125 672.398438 980.007812 670.351562 Z M 925.476562 267.398438 C 912.90625 285.898438 913.011719 292.628906 912.339844 314.660156 C 911.804688 332.230469 908.726562 352.519531 906.890625 370.339844 C 904.992188 388.789062 903.429688 407.449219 901.40625 425.828125 C 892.496094 506.890625 845.429688 488.828125 763.726562 531.519531 C 748.636719 539.398438 737.367188 547.011719 719.785156 549.039062 C 684.167969 553.160156 663.9375 530.78125 638.605469 510.460938 C 616.429688 492.660156 592.46875 474.730469 570.925781 456.5 C 561.511719 448.539062 548.683594 433.308594 535.605469 433.429688 C 522 433.550781 511.046875 450.148438 502.46875 459.230469 C 493.101562 469.121094 450.300781 512.308594 441.59375 519.871094 C 406.261719 550.53125 436.316406 564.210938 456.363281 590.230469 C 473.496094 612.46875 493.351562 635.75 511.605469 657.230469 C 534.378906 684.039062 552.324219 704.441406 540.535156 742.601562 C 536.105469 756.941406 527.105469 770.371094 520.921875 784.238281 C 514.535156 798.539062 508.632812 813.210938 503.644531 828.058594 C 493.371094 858.621094 486.371094 886.390625 451.785156 897.410156 C 435.585938 902.570312 365.292969 908.050781 342.835938 910.539062 C 333.941406 911.53125 325.179688 912.988281 316.234375 913.609375 C 306.742188 914.269531 296.6875 913.890625 287.34375 915.269531 C 264.378906 918.671875 263.613281 933.808594 264.550781 953.71875 C 265.53125 974.609375 265.160156 994.339844 265.496094 1015.121094 C 265.734375 1029.847656 261.796875 1062.929688 267.492188 1074.523438 C 275.039062 1089.886719 299.699219 1087.195312 314.191406 1088.054688 C 331.773438 1089.09375 351.746094 1091.953125 369.554688 1093.839844 C 388.007812 1095.796875 406.476562 1097.46875 424.882812 1099.429688 C 441.894531 1101.242188 457.214844 1103.585938 471.203125 1114.21875 C 496.261719 1133.265625 500.355469 1166.980469 511.714844 1194.914062 C 517.621094 1209.433594 523.363281 1222.886719 530.753906 1236.75 C 562.3125 1295.980469 533.390625 1318.402344 498.488281 1360.699219 C 489.289062 1371.847656 480.15625 1383.066406 470.847656 1394.121094 C 461.578125 1405.121094 453.1875 1416.855469 443.179688 1427.105469 C 407.597656 1463.542969 431.589844 1468.453125 456.871094 1495.8125 C 466.695312 1506.441406 476.4375 1516.828125 486.804688 1526.953125 C 491.882812 1531.910156 497.277344 1536.4375 502.140625 1541.628906 C 517.101562 1557.605469 528.601562 1580.203125 553.792969 1560.671875 C 559.75 1556.054688 565.03125 1550.53125 570.78125 1545.640625 C 576.222656 1541.011719 582.109375 1537.054688 587.699219 1532.628906 C 610.140625 1514.867188 633.382812 1496.316406 655.398438 1478.078125 C 713.878906 1429.625 734.875 1458.195312 783.574219 1479.695312 C 798.011719 1486.070312 812.25 1492.054688 827.214844 1497.117188 C 858.078125 1507.5625 885.449219 1513.910156 896.460938 1549.0625 C 901.957031 1566.609375 906.816406 1634.558594 909.472656 1658.183594 C 910.46875 1667.054688 911.929688 1675.800781 912.5625 1684.714844 C 915.035156 1719.519531 908.820312 1738.367188 952.53125 1736.441406 C 973.414062 1735.519531 993.171875 1735.777344 1013.960938 1735.496094 C 1028.589844 1735.296875 1061.761719 1739.074219 1073.320312 1733.570312 C 1088.949219 1726.121094 1086.351562 1701.84375 1087.199219 1687.253906 C 1088.238281 1669.59375 1091.140625 1649.882812 1092.980469 1631.996094 C 1094.878906 1613.46875 1096.480469 1594.808594 1098.460938 1576.34375 C 1100.300781 1559.253906 1102.519531 1544.125 1113.101562 1529.988281 C 1132.199219 1504.472656 1165.5 1500.707031 1193.648438 1489.320312 C 1207.921875 1483.546875 1222.179688 1477.628906 1235.800781 1470.433594 C 1250.640625 1462.589844 1262.308594 1454.914062 1279.539062 1452.753906 C 1315.320312 1448.273438 1335.308594 1470.253906 1360.589844 1490.785156 C 1382.789062 1508.816406 1406.550781 1526.429688 1428.328125 1544.6875 C 1437.960938 1552.757812 1450.640625 1567.839844 1463.769531 1568.234375 C 1478.148438 1568.667969 1488.640625 1552.390625 1497.191406 1542.8125 L 1558.039062 1482.148438 C 1593.070312 1450.855469 1564.441406 1438.441406 1543.878906 1411.726562 C 1526.699219 1389.398438 1506.75 1366.644531 1488.628906 1344.789062 C 1466.03125 1317.546875 1447.550781 1298.378906 1459.300781 1259.613281 C 1463.660156 1245.234375 1472.660156 1231.761719 1478.820312 1217.878906 C 1485.171875 1203.589844 1491.128906 1188.914062 1496.140625 1174.109375 C 1506.5 1143.511719 1513.140625 1115.722656 1547.800781 1104.527344 C 1565.230469 1098.894531 1633.671875 1094.054688 1656.929688 1091.589844 C 1665.820312 1090.644531 1674.578125 1089.179688 1683.511719 1088.53125 C 1717.730469 1086.054688 1737.289062 1092.550781 1735.46875 1048.613281 C 1734.609375 1027.699219 1734.808594 1007.972656 1734.5 987.171875 C 1734.289062 972.328125 1738.078125 939.449219 1732.640625 927.640625 C 1725.289062 911.691406 1701.261719 914.300781 1686.53125 913.441406 C 1668.851562 912.398438 1649.070312 909.601562 1631.160156 907.78125 C 1612.660156 905.910156 1593.980469 904.371094 1575.539062 902.378906 C 1505.570312 894.839844 1509.738281 859.898438 1488.449219 807.148438 C 1482.640625 792.738281 1476.820312 778.949219 1469.480469 765.21875 C 1460.941406 749.25 1455.289062 736.441406 1455.960938 717.761719 C 1457.089844 686.609375 1482.488281 664.46875 1501.289062 641.441406 C 1511.488281 628.929688 1548.050781 584.039062 1556.621094 575.070312 C 1591.660156 538.421875 1569.800781 533.609375 1543.371094 506.148438 C 1533.398438 495.789062 1523.519531 485.289062 1513.5 474.96875 C 1508.558594 469.878906 1503.230469 465.230469 1498.351562 460.078125 C 1493.21875 454.648438 1488.609375 448.621094 1483.308594 443.390625 C 1471.140625 431.371094 1460.710938 429.878906 1446.921875 440.550781 C 1440.96875 445.160156 1435.699219 450.78125 1429.988281 455.710938 C 1424.539062 460.410156 1418.78125 464.371094 1413.128906 468.761719 C 1390.410156 486.410156 1367.710938 505.089844 1345.328125 523.238281 C 1333.53125 532.808594 1323.269531 542.210938 1308.308594 546.660156 C 1271.601562 557.589844 1248 536.050781 1216.769531 522.160156 C 1202.488281 515.808594 1187.878906 509.789062 1173.070312 504.808594 C 1142.628906 494.578125 1114.628906 487.558594 1103.550781 453.148438 C 1098.050781 436.039062 1093.058594 367.261719 1090.519531 344.078125 C 1089.539062 335.199219 1088.039062 326.46875 1087.398438 317.539062 C 1084.96875 283.429688 1091.5 263.488281 1047.421875 265.53125 C 1006.5 267.421875 966.457031 265.160156 925.476562 267.398438 "/>
<path fill-rule="evenodd" fill="rgb(0%, 0%, 0%)" fill-opacity="1" d="M 925.476562 267.398438 C 966.457031 265.160156 1006.5 267.421875 1047.421875 265.53125 C 1091.5 263.488281 1084.96875 283.429688 1087.398438 317.539062 C 1088.039062 326.46875 1089.539062 335.199219 1090.519531 344.078125 C 1093.058594 367.261719 1098.050781 436.039062 1103.550781 453.148438 C 1114.628906 487.558594 1142.628906 494.578125 1173.070312 504.808594 C 1187.878906 509.789062 1202.488281 515.808594 1216.769531 522.160156 C 1248 536.050781 1271.601562 557.589844 1308.308594 546.660156 C 1323.269531 542.210938 1333.53125 532.808594 1345.328125 523.238281 C 1367.710938 505.089844 1390.410156 486.410156 1413.128906 468.761719 C 1418.78125 464.371094 1424.539062 460.410156 1429.988281 455.710938 C 1435.699219 450.78125 1440.96875 445.160156 1446.921875 440.550781 C 1460.710938 429.878906 1471.140625 431.371094 1483.308594 443.390625 C 1488.609375 448.621094 1493.21875 454.648438 1498.351562 460.078125 C 1503.230469 465.230469 1508.558594 469.878906 1513.5 474.96875 C 1523.519531 485.289062 1533.398438 495.789062 1543.371094 506.148438 C 1569.800781 533.609375 1591.660156 538.421875 1556.621094 575.070312 C 1548.050781 584.039062 1511.488281 628.929688 1501.289062 641.441406 C 1482.488281 664.46875 1457.089844 686.609375 1455.960938 717.761719 C 1455.289062 736.441406 1460.941406 749.25 1469.480469 765.21875 C 1476.820312 778.949219 1482.640625 792.738281 1488.449219 807.148438 C 1509.738281 859.898438 1505.570312 894.839844 1575.539062 902.378906 C 1593.980469 904.371094 1612.660156 905.910156 1631.160156 907.78125 C 1649.070312 909.601562 1668.851562 912.398438 1686.53125 913.441406 C 1701.261719 914.300781 1725.289062 911.691406 1732.640625 927.640625 C 1738.078125 939.449219 1734.289062 972.328125 1734.5 987.171875 C 1734.808594 1007.972656 1734.609375 1027.699219 1735.46875 1048.613281 C 1737.289062 1092.550781 1717.730469 1086.054688 1683.511719 1088.53125 C 1674.578125 1089.179688 1665.820312 1090.644531 1656.929688 1091.589844 C 1633.671875 1094.054688 1565.230469 1098.894531 1547.800781 1104.527344 C 1513.140625 1115.722656 1506.5 1143.511719 1496.140625 1174.109375 C 1491.128906 1188.914062 1485.171875 1203.589844 1478.820312 1217.878906 C 1472.660156 1231.761719 1463.660156 1245.234375 1459.300781 1259.613281 C 1447.550781 1298.378906 1466.03125 1317.546875 1488.628906 1344.789062 C 1506.75 1366.644531 1526.699219 1389.398438 1543.878906 1411.726562 C 1564.441406 1438.441406 1593.070312 1450.855469 1558.039062 1482.148438 L 1497.191406 1542.8125 C 1488.640625 1552.390625 1478.148438 1568.667969 1463.769531 1568.234375 C 1450.640625 1567.839844 1437.960938 1552.757812 1428.328125 1544.6875 C 1406.550781 1526.429688 1382.789062 1508.816406 1360.589844 1490.785156 C 1335.308594 1470.253906 1315.320312 1448.273438 1279.539062 1452.753906 C 1262.308594 1454.914062 1250.640625 1462.589844 1235.800781 1470.433594 C 1222.179688 1477.628906 1207.921875 1483.546875 1193.648438 1489.320312 C 1165.5 1500.707031 1132.199219 1504.472656 1113.101562 1529.988281 C 1102.519531 1544.125 1100.300781 1559.253906 1098.460938 1576.34375 C 1096.480469 1594.808594 1094.878906 1613.46875 1092.980469 1631.996094 C 1091.140625 1649.882812 1088.238281 1669.59375 1087.199219 1687.253906 C 1086.351562 1701.84375 1088.949219 1726.121094 1073.320312 1733.570312 C 1061.761719 1739.074219 1028.589844 1735.296875 1013.960938 1735.496094 C 993.171875 1735.777344 973.414062 1735.519531 952.53125 1736.441406 C 908.820312 1738.367188 915.035156 1719.519531 912.5625 1684.714844 C 911.929688 1675.800781 910.46875 1667.054688 909.472656 1658.183594 C 906.816406 1634.558594 901.957031 1566.609375 896.460938 1549.0625 C 885.449219 1513.910156 858.078125 1507.5625 827.214844 1497.117188 C 812.25 1492.054688 798.011719 1486.070312 783.574219 1479.695312 C 734.875 1458.195312 713.878906 1429.625 655.398438 1478.078125 C 633.382812 1496.316406 610.140625 1514.867188 587.699219 1532.628906 C 582.109375 1537.054688 576.222656 1541.011719 570.78125 1545.640625 C 565.03125 1550.53125 559.75 1556.054688 553.792969 1560.671875 C 528.601562 1580.203125 517.101562 1557.605469 502.140625 1541.628906 C 497.277344 1536.4375 491.882812 1531.910156 486.804688 1526.953125 C 476.4375 1516.828125 466.695312 1506.441406 456.871094 1495.8125 C 431.589844 1468.453125 407.597656 1463.542969 443.179688 1427.105469 C 453.1875 1416.855469 461.578125 1405.121094 470.847656 1394.121094 C 480.15625 1383.066406 489.289062 1371.847656 498.488281 1360.699219 C 533.390625 1318.402344 562.3125 1295.980469 530.753906 1236.75 C 523.363281 1222.886719 517.621094 1209.433594 511.714844 1194.914062 C 500.355469 1166.980469 496.261719 1133.265625 471.203125 1114.21875 C 457.214844 1103.585938 441.894531 1101.242188 424.882812 1099.429688 C 406.476562 1097.46875 388.007812 1095.796875 369.554688 1093.839844 C 351.746094 1091.953125 331.773438 1089.09375 314.191406 1088.054688 C 299.699219 1087.195312 275.039062 1089.886719 267.492188 1074.523438 C 261.796875 1062.929688 265.734375 1029.847656 265.496094 1015.121094 C 265.160156 994.339844 265.53125 974.609375 264.550781 953.71875 C 263.613281 933.808594 264.378906 918.671875 287.34375 915.269531 C 296.6875 913.890625 306.742188 914.269531 316.234375 913.609375 C 325.179688 912.988281 333.941406 911.53125 342.835938 910.539062 C 365.292969 908.050781 435.585938 902.570312 451.785156 897.410156 C 486.371094 886.390625 493.371094 858.621094 503.644531 828.058594 C 508.632812 813.210938 514.535156 798.539062 520.921875 784.238281 C 527.105469 770.371094 536.105469 756.941406 540.535156 742.601562 C 552.324219 704.441406 534.378906 684.039062 511.605469 657.230469 C 493.351562 635.75 473.496094 612.46875 456.363281 590.230469 C 436.316406 564.210938 406.261719 550.53125 441.59375 519.871094 C 450.300781 512.308594 493.101562 469.121094 502.46875 459.230469 C 511.046875 450.148438 522 433.550781 535.605469 433.429688 C 548.683594 433.308594 561.511719 448.539062 570.925781 456.5 C 592.46875 474.730469 616.429688 492.660156 638.605469 510.460938 C 663.9375 530.78125 684.167969 553.160156 719.785156 549.039062 C 737.367188 547.011719 748.636719 539.398438 763.726562 531.519531 C 845.429688 488.828125 892.496094 506.890625 901.40625 425.828125 C 903.429688 407.449219 904.992188 388.789062 906.890625 370.339844 C 908.726562 352.519531 911.804688 332.230469 912.339844 314.660156 C 913.011719 292.628906 912.90625 285.898438 925.476562 267.398438 Z M 368.207031 545.050781 C 368.148438 576.671875 395.820312 602.828125 415.605469 626.609375 C 434.898438 649.789062 454.035156 674.558594 474.53125 696.441406 C 498.785156 722.328125 484.988281 734.761719 471.988281 760.058594 C 468.710938 766.441406 455.855469 798.339844 453.808594 805.148438 C 451.375 813.25 449.648438 822.289062 446.347656 830 C 438.28125 848.808594 420.632812 849.28125 402.625 850.078125 C 382.320312 850.96875 363.84375 853.640625 343.769531 855.78125 C 324.324219 857.851562 304.878906 859.28125 285.453125 861.25 C 200.914062 869.789062 211.414062 926.789062 211.425781 980.648438 C 211.433594 1001.90625 211.464844 1023.15625 211.15625 1044.40625 C 210.609375 1081.847656 212.351562 1115.710938 251.363281 1132.929688 C 267.753906 1140.164062 288.824219 1140.859375 306.558594 1142.410156 C 325.917969 1144.101562 345.847656 1145.800781 365.078125 1148.4375 C 382.160156 1150.78125 415.15625 1151.90625 424.308594 1153.949219 C 444.820312 1158.527344 447.351562 1171.878906 452.167969 1189.800781 C 456.132812 1204.570312 463.410156 1222.308594 469.757812 1236.355469 C 475.722656 1249.5625 488.445312 1265.800781 487.871094 1280.382812 C 487.261719 1295.902344 472.3125 1307.277344 462.734375 1318.15625 C 445.292969 1337.953125 423.84375 1366.382812 404.964844 1388.378906 C 381.859375 1415.292969 360.136719 1438.363281 372.125 1476.789062 C 377.050781 1492.578125 387.082031 1503.179688 398.371094 1514.664062 C 419.582031 1536.253906 440.957031 1557.730469 462.183594 1579.332031 C 486.824219 1604.414062 505.09375 1628.730469 544.5625 1623.753906 C 572.300781 1620.253906 602.238281 1590.808594 623.828125 1573.140625 C 635.464844 1563.617188 647.792969 1553.234375 659.753906 1544.261719 C 665.953125 1539.613281 671.683594 1535.433594 677.453125 1530.191406 C 699.453125 1510.195312 708.585938 1500.070312 738.699219 1517.785156 C 754.65625 1527.175781 766.058594 1531.003906 782.304688 1538.433594 C 825.511719 1558.195312 846.558594 1542.179688 849.234375 1599.898438 C 850.164062 1619.96875 852.820312 1638.964844 854.847656 1658.882812 C 856.816406 1678.238281 858.382812 1697.734375 860.492188 1717.042969 C 869.5625 1800.148438 927.667969 1789.554688 981.273438 1789.570312 C 1002.539062 1789.574219 1023.789062 1789.5625 1045.050781 1789.84375 C 1082.289062 1790.335938 1116.03125 1787.585938 1132.429688 1748.585938 C 1140.921875 1728.386719 1144.269531 1661.234375 1147.738281 1634.671875 C 1150.089844 1616.664062 1149.359375 1591.5 1153.269531 1575.519531 C 1158.191406 1555.394531 1172.351562 1553.179688 1189.921875 1548.445312 C 1206.050781 1544.101562 1221.070312 1536.855469 1236.589844 1530.597656 C 1250.621094 1524.933594 1266.820312 1512.488281 1279.96875 1509.414062 C 1297.5 1505.316406 1308.550781 1516.933594 1320.21875 1527.851562 C 1330.859375 1537.804688 1343.78125 1547.003906 1355.261719 1556.257812 C 1367.199219 1565.878906 1379.28125 1575.339844 1391.230469 1584.941406 C 1419.078125 1607.328125 1439.03125 1630.457031 1478.398438 1623.011719 C 1496.441406 1619.601562 1506.058594 1611.335938 1518.511719 1598.800781 C 1539.890625 1577.265625 1561.058594 1555.773438 1582.269531 1534.070312 C 1605.699219 1510.09375 1631.800781 1491.914062 1631.019531 1454.738281 C 1630.339844 1422.09375 1602.898438 1397.496094 1582.980469 1373.445312 C 1563.449219 1349.867188 1544.328125 1326.355469 1523.859375 1303.628906 C 1500.75 1277.964844 1516.960938 1264.046875 1528.929688 1239.585938 C 1559.101562 1177.980469 1537.480469 1154.5625 1600.238281 1151.570312 C 1626.589844 1150.3125 1688.5 1143.402344 1717.238281 1140.207031 C 1753.039062 1136.222656 1781.710938 1120.464844 1787.488281 1081.957031 C 1790 1065.257812 1788.519531 979.53125 1788.890625 954.238281 C 1789.421875 917.078125 1785.640625 883.398438 1746.5 867.859375 C 1727.21875 860.199219 1657.800781 856.050781 1632.199219 852.851562 C 1614.828125 850.679688 1588.429688 851.441406 1573.230469 847.191406 C 1553.621094 841.71875 1551.949219 826.609375 1547.179688 809.46875 C 1543.421875 795.941406 1535.441406 776.019531 1529.320312 763.25 C 1523.058594 750.171875 1510.480469 734.308594 1512.28125 719.351562 C 1514.03125 704.808594 1529.589844 692.871094 1538.699219 682.078125 C 1548.300781 670.710938 1557.511719 658.71875 1567.21875 647.21875 C 1578.621094 633.691406 1617.871094 587.871094 1623.980469 575.558594 C 1632 559.421875 1633.109375 539.449219 1627.148438 522.460938 C 1621.800781 507.230469 1610.980469 496.859375 1600.039062 485.550781 C 1578.988281 463.78125 1557.070312 442.828125 1536.21875 420.898438 C 1512.070312 395.5 1492.421875 372.011719 1453.289062 378.269531 C 1434.890625 381.210938 1424.539062 389.511719 1410.730469 400.898438 C 1398.878906 410.679688 1386.949219 420.230469 1374.910156 429.769531 C 1363.011719 439.199219 1351.050781 449.578125 1338.949219 458.578125 C 1326.511719 467.808594 1309.621094 483.859375 1303.570312 487.871094 C 1287.628906 498.441406 1275.230469 492.058594 1260.441406 483.390625 C 1244.859375 474.25 1232.648438 470.261719 1216.808594 462.890625 C 1172.980469 442.511719 1153.308594 460.039062 1150.671875 400.691406 C 1149.78125 380.769531 1146.988281 361.488281 1144.949219 341.679688 C 1139.519531 288.800781 1143.640625 222.769531 1081.21875 213.410156 C 1064.871094 210.949219 979.203125 212.550781 953.96875 212.128906 C 917.078125 211.519531 883.28125 214.699219 867.320312 253.488281 C 858.949219 273.839844 855.582031 341 852.125 367.628906 C 849.8125 385.441406 850.542969 410.929688 846.550781 426.691406 C 841.511719 446.589844 826.988281 448.761719 809.640625 453.5 C 793.617188 457.871094 778.398438 465.019531 762.996094 471.328125 C 749.191406 476.988281 732.730469 489.601562 719.867188 492.550781 C 702.445312 496.550781 691.738281 484.878906 680.082031 474.121094 C 666.394531 461.480469 626.4375 431.121094 609 417.058594 C 581.601562 394.96875 561.1875 371.550781 522.386719 378.53125 C 504.664062 381.71875 494.285156 389.96875 481.878906 402.21875 C 460.402344 423.421875 439.652344 445.609375 418.175781 466.949219 C 407.664062 477.398438 396.035156 488.660156 386.351562 499.78125 C 376.503906 511.078125 368.234375 530 368.207031 545.050781 "/>
<path fill-rule="evenodd" fill="rgb(67.771912%, 71.679688%, 81.639099%)" fill-opacity="1" d="M 1000 669.839844 C 1182.890625 669.839844 1331.160156 818.109375 1331.160156 1001 C 1331.160156 1183.894531 1182.890625 1332.15625 1000 1332.15625 C 817.109375 1332.15625 668.84375 1183.894531 668.84375 1001 C 668.84375 818.109375 817.109375 669.839844 1000 669.839844 "/>
<path fill-rule="evenodd" fill="rgb(0%, 0%, 0%)" fill-opacity="1" d="M 980.007812 670.351562 C 920.078125 672.398438 843.46875 700.378906 797.035156 738.960938 C 761.847656 768.199219 731.734375 799.660156 709.972656 840.449219 C 701.675781 856 691.382812 869.480469 703.277344 886.621094 C 712.925781 900.519531 734.507812 901.171875 745.390625 888.441406 C 761.316406 869.808594 761.652344 838.839844 828.765625 783.269531 C 877.890625 742.589844 957.167969 718.21875 1020.429688 724.679688 C 1088.960938 731.679688 1143.738281 755.230469 1193.839844 802.78125 C 1213.441406 821.378906 1234.96875 851.238281 1246.878906 875.46875 C 1254.089844 890.148438 1266.921875 904.058594 1285.058594 895.691406 C 1291.171875 892.878906 1298.039062 886.058594 1300.488281 879.75 C 1304.480469 869.480469 1301.550781 863.050781 1296.929688 854.121094 C 1267.140625 796.429688 1232.191406 757.449219 1178.121094 721.539062 C 1150.078125 702.929688 1123.019531 692.96875 1091.460938 682.53125 C 1056.351562 670.910156 1016.738281 669.089844 980.007812 670.351562 "/>
<path fill-rule="evenodd" fill="rgb(0%, 0%, 0%)" fill-opacity="1" d="M 1301.839844 1135.824219 C 1305.398438 1118.734375 1289.289062 1102.523438 1272.019531 1104.214844 C 1253.820312 1105.996094 1249.148438 1123.40625 1241.449219 1136.695312 C 1152.949219 1289.496094 954.296875 1323.988281 820.210938 1211.441406 C 760.984375 1161.730469 755.972656 1116.410156 736.46875 1106.675781 C 720.75 1098.828125 701.53125 1109.398438 698.253906 1126.125 C 695.65625 1139.363281 708.65625 1160.0625 715.796875 1171.296875 C 730.945312 1195.132812 750.742188 1222.28125 771.644531 1241.148438 C 836.621094 1299.792969 906.925781 1329.75 995.464844 1331.90625 C 1094.269531 1334.3125 1191.71875 1288.976562 1254.039062 1213.023438 C 1267.191406 1197.007812 1297.851562 1155.035156 1301.839844 1135.824219 "/>
<path fill-rule="evenodd" fill="rgb(100%, 100%, 100%)" fill-opacity="1" d="M 1000 826.699219 C 1096.261719 826.699219 1174.300781 904.738281 1174.300781 1001 C 1174.300781 1097.265625 1096.261719 1175.300781 1000 1175.300781 C 903.734375 1175.300781 825.699219 1097.265625 825.699219 1001 C 825.699219 904.738281 903.734375 826.699219 1000 826.699219 "/>
<path fill-rule="nonzero" fill="rgb(0%, 0%, 0%)" fill-opacity="1" d="M 1000 795.199219 C 1056.828125 795.199219 1108.28125 818.238281 1145.519531 855.480469 C 1182.761719 892.730469 1205.800781 944.171875 1205.800781 1001 C 1205.800781 1057.828125 1182.761719 1109.273438 1145.519531 1146.519531 C 1108.28125 1183.761719 1056.828125 1206.796875 1000 1206.796875 C 943.175781 1206.796875 891.726562 1183.761719 854.484375 1146.519531 C 817.238281 1109.273438 794.203125 1057.824219 794.203125 1001 C 794.203125 944.171875 817.238281 892.730469 854.484375 855.480469 C 891.726562 818.238281 943.175781 795.199219 1000 795.199219 Z M 1100.980469 900.019531 C 1075.140625 874.179688 1039.441406 858.191406 1000 858.191406 C 960.5625 858.191406 924.859375 874.179688 899.019531 900.019531 C 873.175781 925.859375 857.191406 961.558594 857.191406 1001 C 857.191406 1040.4375 873.175781 1076.140625 899.019531 1101.980469 C 924.859375 1127.824219 960.5625 1143.808594 1000 1143.808594 C 1039.441406 1143.808594 1075.140625 1127.824219 1100.980469 1101.980469 C 1126.820312 1076.140625 1142.808594 1040.4375 1142.808594 1001 C 1142.808594 961.558594 1126.820312 925.859375 1100.980469 900.019531 "/>
</svg>
