<?xml version="1.0" encoding="UTF-8"?>
<svg xmlns="http://www.w3.org/2000/svg" xmlns:xlink="http://www.w3.org/1999/xlink" width="3840" height="2160" viewBox="0 0 3840 2160">
<defs>
<clipPath id="clip-0">
<path clip-rule="nonzero" d="M 1536 959 L 1784 959 L 1784 1206 L 1536 1206 Z M 1536 959 "/>
</clipPath>
<clipPath id="clip-1">
<path clip-rule="nonzero" d="M 1783.019531 1082.410156 C 1783.019531 1150.5 1727.820312 1205.699219 1659.71875 1205.699219 C 1591.628906 1205.699219 1536.429688 1150.5 1536.429688 1082.410156 C 1536.429688 1014.308594 1591.628906 959.109375 1659.71875 959.109375 C 1727.820312 959.109375 1783.019531 1014.308594 1783.019531 1082.410156 Z M 1783.019531 1082.410156 "/>
</clipPath>
<clipPath id="clip-2">
<path clip-rule="nonzero" d="M 1783.019531 1082.410156 C 1783.019531 1150.5 1727.820312 1205.699219 1659.71875 1205.699219 C 1591.628906 1205.699219 1536.429688 1150.5 1536.429688 1082.410156 C 1536.429688 1014.308594 1591.628906 959.109375 1659.71875 959.109375 C 1727.820312 959.109375 1783.019531 1014.308594 1783.019531 1082.410156 "/>
</clipPath>
<linearGradient id="linear-pattern-0" gradientUnits="userSpaceOnUse" x1="0.000000000000001776" y1="0" x2="0.999996" y2="0" gradientTransform="matrix(0, -246.591, 246.591, 0, 1659.72, 1205.7)">
<stop offset="0" stop-color="rgb(16.078186%, 39.215088%, 53.33252%)" stop-opacity="1"/>
<stop offset="0.03125" stop-color="rgb(16.169739%, 39.331055%, 53.417969%)" stop-opacity="1"/>
<stop offset="0.0625" stop-color="rgb(16.352844%, 39.562988%, 53.588867%)" stop-opacity="1"/>
<stop offset="0.09375" stop-color="rgb(16.537476%, 39.796448%, 53.761292%)" stop-opacity="1"/>
<stop offset="0.125" stop-color="rgb(16.720581%, 40.029907%, 53.93219%)" stop-opacity="1"/>
<stop offset="0.15625" stop-color="rgb(16.905212%, 40.261841%, 54.104614%)" stop-opacity="1"/>
<stop offset="0.1875" stop-color="rgb(17.088318%, 40.4953%, 54.275513%)" stop-opacity="1"/>
<stop offset="0.21875" stop-color="rgb(17.271423%, 40.727234%, 54.447937%)" stop-opacity="1"/>
<stop offset="0.25" stop-color="rgb(17.456055%, 40.960693%, 54.618835%)" stop-opacity="1"/>
<stop offset="0.28125" stop-color="rgb(17.63916%, 41.194153%, 54.79126%)" stop-opacity="1"/>
<stop offset="0.3125" stop-color="rgb(17.823792%, 41.426086%, 54.962158%)" stop-opacity="1"/>
<stop offset="0.34375" stop-color="rgb(18.006897%, 41.659546%, 55.133057%)" stop-opacity="1"/>
<stop offset="0.375" stop-color="rgb(18.191528%, 41.891479%, 55.305481%)" stop-opacity="1"/>
<stop offset="0.40625" stop-color="rgb(18.374634%, 42.124939%, 55.476379%)" stop-opacity="1"/>
<stop offset="0.4375" stop-color="rgb(18.559265%, 42.358398%, 55.648804%)" stop-opacity="1"/>
<stop offset="0.46875" stop-color="rgb(18.742371%, 42.590332%, 55.819702%)" stop-opacity="1"/>
<stop offset="0.5" stop-color="rgb(18.927002%, 42.823792%, 55.992126%)" stop-opacity="1"/>
<stop offset="0.53125" stop-color="rgb(19.110107%, 43.055725%, 56.163025%)" stop-opacity="1"/>
<stop offset="0.5625" stop-color="rgb(19.294739%, 43.289185%, 56.333923%)" stop-opacity="1"/>
<stop offset="0.59375" stop-color="rgb(19.477844%, 43.522644%, 56.506348%)" stop-opacity="1"/>
<stop offset="0.625" stop-color="rgb(19.662476%, 43.754578%, 56.677246%)" stop-opacity="1"/>
<stop offset="0.65625" stop-color="rgb(19.845581%, 43.988037%, 56.84967%)" stop-opacity="1"/>
<stop offset="0.6875" stop-color="rgb(20.030212%, 44.219971%, 57.020569%)" stop-opacity="1"/>
<stop offset="0.71875" stop-color="rgb(20.213318%, 44.45343%, 57.192993%)" stop-opacity="1"/>
<stop offset="0.75" stop-color="rgb(20.396423%, 44.68689%, 57.363892%)" stop-opacity="1"/>
<stop offset="0.78125" stop-color="rgb(20.581055%, 44.918823%, 57.536316%)" stop-opacity="1"/>
<stop offset="0.8125" stop-color="rgb(20.76416%, 45.152283%, 57.707214%)" stop-opacity="1"/>
<stop offset="0.84375" stop-color="rgb(20.948792%, 45.384216%, 57.878113%)" stop-opacity="1"/>
<stop offset="0.875" stop-color="rgb(21.131897%, 45.617676%, 58.050537%)" stop-opacity="1"/>
<stop offset="0.90625" stop-color="rgb(21.316528%, 45.851135%, 58.221436%)" stop-opacity="1"/>
<stop offset="0.9375" stop-color="rgb(21.499634%, 46.083069%, 58.39386%)" stop-opacity="1"/>
<stop offset="0.96875" stop-color="rgb(21.684265%, 46.316528%, 58.564758%)" stop-opacity="1"/>
<stop offset="1" stop-color="rgb(21.867371%, 46.548462%, 58.737183%)" stop-opacity="1"/>
</linearGradient>
</defs>
<rect x="-384" y="-216" width="4608" height="2592" fill="rgb(100%, 100%, 100%)" fill-opacity="1"/>
<path fill-rule="nonzero" fill="rgb(86.326599%, 95.701599%, 95.701599%)" fill-opacity="1" d="M 1940.828125 1492.300781 C 1940.828125 1492.300781 2126.101562 1494.648438 2196.371094 1492.300781 C 2266.640625 1489.960938 2343.929688 1543.828125 2367.359375 1583.660156 C 2390.78125 1623.46875 2493.839844 1766.359375 2566.460938 1813.199219 C 2639.070312 1860.050781 2704.660156 1771.039062 2704.660156 1771.039062 C 2803.03125 1646.898438 2772.578125 1527.441406 2772.578125 1527.441406 C 2742.128906 1258.070312 2528.980469 796.628906 2528.980469 796.628906 C 2442.308594 719.328125 2175.28125 688.878906 2175.28125 688.878906 L 1940.96875 691.21875 L 1706.351562 688.878906 C 1706.351562 688.878906 1439.320312 719.328125 1352.648438 796.628906 C 1352.648438 796.628906 1139.5 1258.070312 1109.050781 1527.441406 C 1109.050781 1527.441406 1078.601562 1646.898438 1176.980469 1771.039062 C 1176.980469 1771.039062 1242.558594 1860.050781 1315.179688 1813.199219 C 1387.789062 1766.359375 1490.851562 1623.46875 1514.28125 1583.660156 C 1537.699219 1543.828125 1615 1489.960938 1685.269531 1492.300781 C 1755.539062 1494.648438 1940.828125 1492.300781 1940.828125 1492.300781 "/>
<path fill-rule="nonzero" fill="rgb(100%, 100%, 100%)" fill-opacity="1" d="M 1280.648438 647.628906 C 1313.449219 577.359375 1374.351562 537.539062 1435.25 516.460938 C 1496.148438 495.371094 1580.480469 500.058594 1580.480469 500.058594 L 1634.351562 539.878906 L 1634.351562 653 L 1322 732 L 1280.648438 647.628906 "/>
<path fill-rule="nonzero" fill="rgb(16.088867%, 37.646484%, 53.318787%)" fill-opacity="1" d="M 1280.648438 647.628906 L 1284.28125 649.320312 C 1300.398438 614.789062 1323.390625 587.769531 1349.898438 566.730469 C 1376.410156 545.691406 1406.449219 530.660156 1436.558594 520.230469 C 1457.210938 513.078125 1480.839844 508.898438 1502.871094 506.539062 C 1524.898438 504.171875 1545.339844 503.609375 1559.660156 503.609375 C 1566.03125 503.609375 1571.191406 503.71875 1574.761719 503.828125 C 1576.539062 503.890625 1577.921875 503.941406 1578.851562 503.980469 C 1579.320312 504.011719 1579.671875 504.019531 1579.910156 504.03125 C 1580.03125 504.039062 1580.109375 504.039062 1580.171875 504.050781 L 1580.25 504.050781 L 1580.480469 500.058594 L 1578.101562 503.269531 L 1630.351562 541.898438 L 1630.351562 649.890625 L 1324.160156 727.328125 L 1284.25 645.871094 L 1280.648438 647.628906 L 1284.28125 649.320312 L 1280.648438 647.628906 L 1277.058594 649.390625 L 1319.839844 736.671875 L 1638.351562 656.109375 L 1638.351562 537.859375 L 1581.890625 496.128906 L 1580.699219 496.058594 C 1580.640625 496.058594 1572.578125 495.609375 1559.660156 495.609375 C 1545.128906 495.609375 1524.441406 496.179688 1502.019531 498.578125 C 1479.601562 500.988281 1455.449219 505.230469 1433.941406 512.671875 C 1403.148438 523.339844 1372.289062 538.75 1344.929688 560.460938 C 1317.558594 582.171875 1293.699219 610.199219 1277.03125 645.929688 L 1276.21875 647.671875 L 1277.058594 649.390625 L 1280.648438 647.628906 "/>
<path fill-rule="nonzero" fill="rgb(85.15625%, 90.234375%, 91.40625%)" fill-opacity="1" d="M 1293.339844 632.628906 C 1334.28125 581.261719 1437.820312 544.128906 1580.160156 504.800781 L 1623.921875 537.140625 C 1602.480469 539.929688 1549.050781 547.519531 1489.128906 560.859375 C 1450.21875 569.53125 1408.570312 580.609375 1371.101562 594.429688 C 1352.359375 601.339844 1334.671875 608.929688 1318.871094 617.269531 C 1309.660156 622.128906 1301.101562 627.238281 1293.339844 632.628906 "/>
<path fill-rule="nonzero" fill="rgb(37.255859%, 54.881287%, 64.646912%)" fill-opacity="1" d="M 1623.921875 537.140625 L 1580.160156 504.800781 C 1580.269531 504.769531 1580.390625 504.738281 1580.5 504.710938 C 1580.988281 504.730469 1581.261719 504.738281 1581.261719 504.738281 L 1624.921875 537.019531 C 1624.589844 537.058594 1624.261719 537.101562 1623.921875 537.140625 "/>
<path fill-rule="nonzero" fill="rgb(100%, 100%, 100%)" fill-opacity="1" d="M 2456.980469 650.628906 C 2424.191406 580.359375 2363.28125 540.539062 2302.378906 519.460938 C 2241.480469 498.371094 2157.160156 503.058594 2157.160156 503.058594 L 2103.28125 542.878906 L 2094 605 L 2406 709 L 2456.980469 650.628906 "/>
<path fill-rule="nonzero" fill="rgb(16.088867%, 37.646484%, 53.318787%)" fill-opacity="1" d="M 2456.980469 650.628906 L 2460.601562 648.929688 C 2443.929688 613.199219 2420.070312 585.171875 2392.710938 563.460938 C 2365.339844 541.75 2334.488281 526.328125 2303.691406 515.671875 C 2282.179688 508.230469 2258.039062 503.988281 2235.621094 501.578125 C 2213.199219 499.179688 2192.511719 498.609375 2177.96875 498.609375 C 2165.050781 498.609375 2157 499.058594 2156.941406 499.058594 L 2155.738281 499.128906 L 2099.570312 540.648438 L 2089.550781 607.730469 L 2407.261719 713.640625 L 2461.710938 651.300781 L 2460.601562 648.929688 L 2456.980469 650.628906 L 2453.96875 647.988281 L 2404.738281 704.359375 L 2098.449219 602.269531 L 2107 545.109375 L 2159.539062 506.269531 L 2157.160156 503.058594 L 2157.378906 507.050781 L 2157.460938 507.050781 C 2158.328125 507 2166.03125 506.609375 2177.96875 506.609375 C 2192.300781 506.609375 2212.730469 507.171875 2234.761719 509.539062 C 2256.789062 511.898438 2280.429688 516.078125 2301.078125 523.230469 C 2331.179688 533.660156 2361.230469 548.691406 2387.738281 569.730469 C 2414.25 590.769531 2437.238281 617.789062 2453.351562 652.320312 L 2456.980469 650.628906 L 2453.96875 647.988281 L 2456.980469 650.628906 "/>
<path fill-rule="nonzero" fill="rgb(85.15625%, 90.234375%, 91.40625%)" fill-opacity="1" d="M 2442.050781 631.089844 C 2434.898438 626.261719 2427.089844 621.660156 2418.769531 617.269531 C 2391.121094 602.679688 2357.660156 590.359375 2322.980469 580.019531 C 2270.96875 564.519531 2216.199219 553.511719 2174.398438 546.351562 C 2150.21875 542.210938 2130.378906 539.371094 2117.941406 537.699219 L 2158.808594 507.5 C 2158.808594 507.5 2159.078125 507.480469 2159.570312 507.460938 C 2267.808594 536.289062 2392.25 579.371094 2440.710938 628.890625 C 2441.160156 629.621094 2441.609375 630.351562 2442.050781 631.089844 "/>
<path fill-rule="nonzero" fill="rgb(37.255859%, 54.881287%, 64.646912%)" fill-opacity="1" d="M 2444.058594 632.46875 C 2443.398438 632.011719 2442.730469 631.550781 2442.050781 631.089844 C 2441.609375 630.351562 2441.160156 629.621094 2440.710938 628.890625 C 2441.871094 630.078125 2442.988281 631.269531 2444.058594 632.46875 "/>
<path fill-rule="nonzero" fill="rgb(100%, 100%, 100%)" fill-opacity="1" d="M 1868.828125 1343.300781 C 1868.828125 1343.300781 2054.101562 1345.648438 2124.371094 1343.300781 C 2194.640625 1340.960938 2271.929688 1394.828125 2295.359375 1434.648438 C 2318.78125 1474.46875 2421.839844 1617.359375 2494.460938 1664.199219 C 2567.070312 1711.050781 2632.648438 1622.039062 2632.648438 1622.039062 C 2731.03125 1497.898438 2700.578125 1378.441406 2700.578125 1378.441406 C 2670.128906 1109.070312 2456.980469 647.628906 2456.980469 647.628906 C 2370.308594 570.328125 2103.28125 539.878906 2103.28125 539.878906 L 1868.96875 542.21875 L 1634.351562 539.878906 C 1634.351562 539.878906 1367.320312 570.328125 1280.648438 647.628906 C 1280.648438 647.628906 1067.5 1109.070312 1037.050781 1378.441406 C 1037.050781 1378.441406 1006.601562 1497.898438 1104.980469 1622.039062 C 1104.980469 1622.039062 1170.558594 1711.050781 1243.179688 1664.199219 C 1315.789062 1617.359375 1418.851562 1474.46875 1442.28125 1434.648438 C 1465.699219 1394.828125 1543 1340.960938 1613.269531 1343.300781 C 1683.539062 1345.648438 1868.828125 1343.300781 1868.828125 1343.300781 "/>
<path fill-rule="nonzero" fill="rgb(16.088867%, 37.646484%, 53.318787%)" fill-opacity="1" d="M 1868.828125 1343.300781 L 1868.78125 1347.300781 C 1868.789062 1347.300781 1951.140625 1348.339844 2026.890625 1348.339844 C 2064.761719 1348.339844 2100.980469 1348.078125 2124.5 1347.300781 C 2125.941406 1347.25 2127.378906 1347.230469 2128.828125 1347.230469 C 2145.578125 1347.230469 2162.789062 1350.421875 2179.519531 1355.839844 C 2204.621094 1363.96875 2228.628906 1377.121094 2248.410156 1391.808594 C 2258.300781 1399.148438 2267.128906 1406.878906 2274.511719 1414.519531 C 2281.898438 1422.160156 2287.820312 1429.730469 2291.910156 1436.679688 C 2297.878906 1446.820312 2308.738281 1463.261719 2322.878906 1483.058594 C 2344.089844 1512.738281 2372.609375 1549.910156 2402.71875 1584.128906 C 2417.78125 1601.238281 2433.230469 1617.609375 2448.378906 1631.941406 C 2463.53125 1646.28125 2478.371094 1658.578125 2492.289062 1667.570312 C 2508.011719 1677.71875 2523.671875 1681.839844 2538.398438 1681.828125 C 2552.390625 1681.828125 2565.5 1678.160156 2577.21875 1672.738281 C 2594.820312 1664.609375 2609.398438 1652.558594 2619.640625 1642.550781 C 2629.878906 1632.539062 2635.78125 1624.539062 2635.878906 1624.421875 L 2632.648438 1622.039062 L 2635.789062 1624.53125 C 2666.488281 1585.789062 2684.820312 1547.429688 2695.449219 1512.929688 C 2706.089844 1478.421875 2709.03125 1447.78125 2709.03125 1424.421875 C 2709.03125 1395.488281 2704.519531 1377.699219 2704.460938 1377.449219 L 2700.578125 1378.441406 L 2704.558594 1377.988281 C 2696.898438 1310.261719 2677.808594 1230.738281 2653.511719 1149.460938 C 2580.589844 905.660156 2460.648438 646.039062 2460.609375 645.949219 L 2460.261719 645.191406 L 2459.640625 644.640625 C 2448.46875 634.691406 2434.558594 625.609375 2418.769531 617.269531 C 2391.121094 602.679688 2357.660156 590.359375 2322.980469 580.019531 C 2270.96875 564.519531 2216.199219 553.511719 2174.398438 546.351562 C 2132.609375 539.199219 2103.789062 535.910156 2103.738281 535.898438 L 2103.488281 535.878906 L 1868.96875 538.21875 L 1634.140625 535.878906 L 1633.898438 535.898438 C 1633.808594 535.910156 1566.949219 543.539062 1489.128906 560.859375 C 1450.21875 569.53125 1408.570312 580.609375 1371.101562 594.429688 C 1352.359375 601.339844 1334.671875 608.929688 1318.871094 617.269531 C 1303.070312 625.609375 1289.160156 634.691406 1277.988281 644.640625 L 1277.371094 645.191406 L 1277.019531 645.949219 C 1277 646 1223.679688 761.429688 1166.539062 910.589844 C 1137.960938 985.171875 1108.429688 1068.191406 1084.128906 1149.460938 C 1059.820312 1230.738281 1040.738281 1310.261719 1033.078125 1377.988281 L 1037.050781 1378.441406 L 1033.171875 1377.449219 C 1033.109375 1377.699219 1028.601562 1395.488281 1028.601562 1424.421875 C 1028.601562 1447.78125 1031.550781 1478.421875 1042.179688 1512.929688 C 1052.808594 1547.429688 1071.140625 1585.789062 1101.839844 1624.53125 L 1104.980469 1622.039062 L 1101.761719 1624.421875 C 1101.890625 1624.578125 1112.320312 1638.75 1129.628906 1653.019531 C 1138.289062 1660.160156 1148.679688 1667.320312 1160.410156 1672.738281 C 1172.140625 1678.160156 1185.238281 1681.828125 1199.238281 1681.828125 C 1213.96875 1681.839844 1229.628906 1677.71875 1245.351562 1667.570312 C 1263.898438 1655.589844 1284.109375 1637.710938 1304.480469 1616.980469 C 1335.019531 1585.878906 1365.871094 1548.371094 1391.320312 1514.851562 C 1404.039062 1498.089844 1415.421875 1482.339844 1424.71875 1468.890625 C 1434.019531 1455.429688 1441.25 1444.289062 1445.71875 1436.679688 C 1451.171875 1427.410156 1459.898438 1417.058594 1470.96875 1406.871094 C 1487.578125 1391.570312 1509.46875 1376.601562 1533.488281 1365.511719 C 1557.519531 1354.421875 1583.679688 1347.21875 1608.808594 1347.230469 C 1610.25 1347.230469 1611.699219 1347.25 1613.128906 1347.300781 C 1636.660156 1348.078125 1672.871094 1348.339844 1710.761719 1348.339844 C 1786.511719 1348.339844 1868.871094 1347.300781 1868.878906 1347.300781 L 1868.828125 1343.300781 L 1868.78125 1347.300781 L 1868.828125 1343.300781 L 1868.78125 1339.300781 C 1868.78125 1339.300781 1867.5 1339.320312 1865.101562 1339.351562 C 1848.308594 1339.550781 1776.980469 1340.339844 1710.761719 1340.339844 C 1672.921875 1340.339844 1636.730469 1340.078125 1613.398438 1339.308594 C 1611.871094 1339.25 1610.339844 1339.230469 1608.808594 1339.230469 C 1591.039062 1339.230469 1573.03125 1342.601562 1555.648438 1348.230469 C 1529.570312 1356.679688 1504.878906 1370.21875 1484.449219 1385.390625 C 1474.238281 1392.96875 1465.089844 1400.96875 1457.359375 1408.960938 C 1449.640625 1416.96875 1443.339844 1424.960938 1438.828125 1432.628906 C 1433.078125 1442.398438 1422.28125 1458.75 1408.238281 1478.410156 C 1387.179688 1507.898438 1358.769531 1544.898438 1328.898438 1578.839844 C 1313.96875 1595.808594 1298.671875 1612.019531 1283.761719 1626.128906 C 1268.851562 1640.238281 1254.320312 1652.261719 1241.011719 1660.839844 C 1226.46875 1670.210938 1212.488281 1673.820312 1199.238281 1673.828125 C 1186.660156 1673.828125 1174.691406 1670.53125 1163.761719 1665.480469 C 1147.371094 1657.921875 1133.398438 1646.441406 1123.578125 1636.828125 C 1118.679688 1632.03125 1114.808594 1627.710938 1112.171875 1624.609375 C 1110.859375 1623.050781 1109.851562 1621.800781 1109.179688 1620.949219 C 1108.851562 1620.519531 1108.601562 1620.199219 1108.429688 1619.980469 C 1108.351562 1619.871094 1108.289062 1619.789062 1108.25 1619.738281 L 1108.210938 1619.679688 L 1108.199219 1619.671875 L 1108.160156 1619.621094 L 1108.109375 1619.558594 C 1078.050781 1581.621094 1060.191406 1544.199219 1049.820312 1510.570312 C 1039.460938 1476.941406 1036.601562 1447.109375 1036.601562 1424.421875 C 1036.601562 1410.371094 1037.699219 1399.058594 1038.789062 1391.289062 C 1039.328125 1387.410156 1039.871094 1384.410156 1040.28125 1382.398438 C 1040.480469 1381.390625 1040.648438 1380.628906 1040.761719 1380.128906 C 1040.820312 1379.878906 1040.859375 1379.699219 1040.890625 1379.578125 L 1040.921875 1379.449219 L 1040.929688 1379.429688 L 1040.988281 1379.160156 L 1041.019531 1378.890625 C 1048.589844 1311.929688 1067.570312 1232.75 1091.789062 1151.75 C 1128.128906 1030.238281 1176.261719 904.589844 1215.308594 809.351562 C 1234.828125 761.730469 1252.078125 721.710938 1264.441406 693.601562 C 1270.628906 679.539062 1275.589844 668.460938 1279.011719 660.898438 C 1280.710938 657.121094 1282.039062 654.21875 1282.929688 652.261719 C 1283.378906 651.28125 1283.710938 650.539062 1283.941406 650.050781 C 1284.171875 649.550781 1284.289062 649.300781 1284.289062 649.300781 L 1280.648438 647.628906 L 1283.320312 650.609375 C 1293.820312 641.238281 1307.210938 632.460938 1322.601562 624.339844 C 1349.539062 610.121094 1382.578125 597.921875 1416.941406 587.691406 C 1468.480469 572.328125 1522.988281 561.351562 1564.578125 554.238281 C 1585.378906 550.679688 1602.949219 548.078125 1615.308594 546.371094 C 1621.488281 545.519531 1626.371094 544.890625 1629.699219 544.46875 C 1631.371094 544.261719 1632.648438 544.109375 1633.511719 544.011719 C 1633.941406 543.949219 1634.261719 543.910156 1634.480469 543.890625 C 1634.699219 543.859375 1634.800781 543.851562 1634.800781 543.851562 L 1634.351562 539.878906 L 1634.308594 543.878906 L 1868.96875 546.21875 L 2103.320312 543.878906 L 2103.28125 539.878906 L 2102.828125 543.851562 C 2102.828125 543.851562 2103.078125 543.878906 2103.578125 543.941406 C 2111.371094 544.859375 2178.511719 553.039062 2254.039062 570.308594 C 2291.808594 578.941406 2331.679688 589.851562 2367.21875 603.21875 C 2384.988281 609.898438 2401.679688 617.199219 2416.46875 625.101562 C 2431.261719 633.011719 2444.140625 641.539062 2454.320312 650.609375 L 2456.980469 647.628906 L 2453.351562 649.300781 C 2453.351562 649.308594 2453.550781 649.75 2453.960938 650.628906 C 2460.199219 664.230469 2513.539062 781.300781 2568.980469 927.511719 C 2596.710938 1000.609375 2624.949219 1080.988281 2648.101562 1159.339844 C 2671.238281 1237.691406 2689.28125 1314.019531 2696.609375 1378.890625 L 2696.640625 1379.160156 L 2696.710938 1379.429688 C 2696.78125 1379.710938 2701.039062 1396.761719 2701.039062 1424.421875 C 2701.03125 1447.109375 2698.171875 1476.941406 2687.808594 1510.570312 C 2677.441406 1544.199219 2659.578125 1581.621094 2629.519531 1619.558594 L 2629.480469 1619.609375 L 2629.429688 1619.671875 C 2629.238281 1619.941406 2619.03125 1633.660156 2602.53125 1647.171875 C 2594.28125 1653.921875 2584.46875 1660.621094 2573.609375 1665.601562 C 2562.761719 1670.578125 2550.878906 1673.828125 2538.398438 1673.828125 C 2525.148438 1673.820312 2511.160156 1670.210938 2496.628906 1660.839844 C 2478.878906 1649.398438 2458.96875 1631.851562 2438.859375 1611.371094 C 2408.679688 1580.648438 2377.988281 1543.339844 2352.691406 1510.011719 C 2340.03125 1493.351562 2328.730469 1477.679688 2319.5 1464.339844 C 2310.269531 1450.988281 2303.109375 1439.949219 2298.800781 1432.628906 C 2292.789062 1422.410156 2283.589844 1411.589844 2272.078125 1400.980469 C 2254.808594 1385.089844 2232.320312 1369.710938 2207.488281 1358.25 C 2182.660156 1346.789062 2155.480469 1339.238281 2128.828125 1339.230469 C 2127.289062 1339.230469 2125.761719 1339.261719 2124.230469 1339.308594 C 2100.910156 1340.078125 2064.71875 1340.339844 2026.890625 1340.339844 C 1989.050781 1340.339844 1949.539062 1340.078125 1919.5 1339.820312 C 1904.480469 1339.691406 1891.820312 1339.558594 1882.921875 1339.46875 C 1878.46875 1339.421875 1874.960938 1339.378906 1872.570312 1339.351562 C 1870.171875 1339.320312 1868.890625 1339.300781 1868.878906 1339.300781 L 1868.78125 1339.300781 L 1868.828125 1343.300781 "/>
<path fill-rule="nonzero" fill="rgb(82.03125%, 88.28125%, 89.451599%)" fill-opacity="1" d="M 2099.390625 1249.179688 C 2014.449219 1249.179688 1945.589844 1180.328125 1945.589844 1095.390625 C 1945.589844 1010.441406 2014.449219 941.589844 2099.390625 941.589844 C 2184.328125 941.589844 2253.191406 1010.441406 2253.191406 1095.390625 C 2253.191406 1180.328125 2184.328125 1249.179688 2099.390625 1249.179688 "/>
<path fill-rule="nonzero" fill="rgb(82.03125%, 88.28125%, 89.451599%)" fill-opacity="1" d="M 1458.929688 1000.828125 C 1373.988281 1000.828125 1305.128906 931.96875 1305.128906 847.03125 C 1305.128906 762.089844 1373.988281 693.230469 1458.929688 693.230469 C 1543.871094 693.230469 1612.730469 762.089844 1612.730469 847.03125 C 1612.730469 931.96875 1543.871094 1000.828125 1458.929688 1000.828125 "/>
<path fill-rule="nonzero" fill="rgb(16.088867%, 39.208984%, 53.318787%)" fill-opacity="1" d="M 2257.800781 827.601562 C 2257.800781 859.511719 2231.941406 885.371094 2200.03125 885.371094 C 2168.121094 885.371094 2142.25 859.511719 2142.25 827.601562 C 2142.25 795.691406 2168.121094 769.820312 2200.03125 769.820312 C 2231.941406 769.820312 2257.800781 795.691406 2257.800781 827.601562 "/>
<path fill-rule="nonzero" fill="rgb(16.088867%, 39.208984%, 53.318787%)" fill-opacity="1" d="M 2477.988281 827.601562 C 2477.988281 859.511719 2452.121094 885.371094 2420.210938 885.371094 C 2388.300781 885.371094 2362.429688 859.511719 2362.429688 827.601562 C 2362.429688 795.691406 2388.300781 769.820312 2420.210938 769.820312 C 2452.121094 769.820312 2477.988281 795.691406 2477.988281 827.601562 "/>
<path fill-rule="nonzero" fill="rgb(16.088867%, 39.208984%, 53.318787%)" fill-opacity="1" d="M 2370.238281 719.851562 C 2370.238281 751.761719 2344.371094 777.628906 2312.460938 777.628906 C 2280.550781 777.628906 2254.679688 751.761719 2254.679688 719.851562 C 2254.679688 687.941406 2280.550781 662.070312 2312.460938 662.070312 C 2344.371094 662.070312 2370.238281 687.941406 2370.238281 719.851562 "/>
<path fill-rule="nonzero" fill="rgb(16.088867%, 39.208984%, 53.318787%)" fill-opacity="1" d="M 2370.238281 946.269531 C 2370.238281 978.191406 2344.371094 1004.050781 2312.460938 1004.050781 C 2280.550781 1004.050781 2254.679688 978.191406 2254.679688 946.269531 C 2254.679688 914.371094 2280.550781 888.5 2312.460938 888.5 C 2344.371094 888.5 2370.238281 914.371094 2370.238281 946.269531 "/>
<g clip-path="url(#clip-0)">
<g clip-path="url(#clip-1)">
<g clip-path="url(#clip-2)">
<path fill-rule="nonzero" fill="url(#linear-pattern-0)" d="M 1536.429688 1205.699219 L 1783.019531 1205.699219 L 1783.019531 959.109375 L 1536.429688 959.109375 Z M 1536.429688 1205.699219 "/>
</g>
</g>
</g>
<path fill-rule="nonzero" fill="rgb(16.088867%, 39.208984%, 53.318787%)" fill-opacity="1" d="M 1619.121094 1034.910156 L 1709.691406 1034.910156 L 1706.570312 976.429688 C 1706.570312 976.429688 1656.601562 960.109375 1622.25 976.429688 L 1619.121094 1034.910156 "/>
<path fill-rule="nonzero" fill="rgb(27.43988%, 54.101562%, 64.646912%)" fill-opacity="1" d="M 1709.699219 1127.628906 L 1619.128906 1127.628906 L 1622.25 1186.949219 C 1622.25 1186.949219 1672.21875 1203.5 1706.570312 1186.949219 L 1709.699219 1127.628906 "/>
<path fill-rule="nonzero" fill="rgb(26.268005%, 53.318787%, 63.867188%)" fill-opacity="1" d="M 1710.699219 1036.460938 L 1710.699219 1127.03125 L 1769.660156 1123.910156 C 1769.660156 1123.910156 1786.109375 1073.941406 1769.660156 1039.578125 L 1710.699219 1036.460938 "/>
<path fill-rule="nonzero" fill="rgb(16.088867%, 39.208984%, 53.318787%)" fill-opacity="1" d="M 1619.519531 1127.03125 L 1619.519531 1036.460938 L 1559.308594 1039.578125 C 1559.308594 1039.578125 1542.511719 1089.550781 1559.308594 1123.910156 L 1619.519531 1127.03125 "/>
<path fill-rule="nonzero" fill="rgb(87.5%, 91.796875%, 92.96875%)" fill-opacity="1" d="M 1199.238281 1673.828125 C 1192.628906 1673.828125 1186.179688 1672.921875 1179.96875 1671.320312 C 1139.738281 1658.378906 1111.230469 1619.691406 1111.230469 1619.691406 C 1012.851562 1495.539062 1043.300781 1376.078125 1043.300781 1376.078125 C 1045.941406 1352.738281 1049.949219 1327.949219 1055.070312 1302.148438 C 1067.148438 1379.789062 1106.460938 1452.660156 1193.589844 1452.640625 C 1260.859375 1452.628906 1356.648438 1409.179688 1490.371094 1290.960938 L 1536.359375 1258.589844 L 2244.53125 1253.121094 L 2316.359375 1318.710938 C 2364.378906 1347.910156 2462.609375 1445.761719 2553.949219 1445.761719 C 2604.339844 1445.761719 2652.640625 1415.960938 2689.21875 1328.378906 C 2692.289062 1345.828125 2694.78125 1362.710938 2696.609375 1378.890625 L 2696.640625 1379.160156 L 2696.710938 1379.429688 C 2696.78125 1379.710938 2701.039062 1396.761719 2701.039062 1424.421875 C 2701.03125 1447.109375 2698.171875 1476.941406 2687.808594 1510.570312 C 2677.441406 1544.199219 2659.578125 1581.621094 2629.519531 1619.558594 L 2629.480469 1619.609375 L 2629.429688 1619.671875 C 2629.238281 1619.941406 2619.03125 1633.660156 2602.53125 1647.171875 C 2594.28125 1653.921875 2584.46875 1660.621094 2573.609375 1665.601562 C 2562.761719 1670.578125 2550.878906 1673.828125 2538.398438 1673.828125 C 2532.738281 1673.820312 2526.960938 1673.160156 2521.050781 1671.679688 C 2514.371094 1669.488281 2507.558594 1666.28125 2500.699219 1661.851562 C 2428.089844 1615.011719 2325.03125 1472.121094 2301.601562 1432.300781 C 2283.441406 1401.429688 2232.910156 1362.109375 2178.371094 1347.089844 C 2162.109375 1342.148438 2145.371094 1339.230469 2128.828125 1339.230469 C 2127.289062 1339.230469 2125.761719 1339.261719 2124.230469 1339.308594 C 2100.910156 1340.078125 2064.71875 1340.339844 2026.890625 1340.339844 C 1989.050781 1340.339844 1949.539062 1340.078125 1919.5 1339.820312 C 1904.480469 1339.691406 1891.820312 1339.558594 1882.921875 1339.46875 C 1878.46875 1339.421875 1874.960938 1339.378906 1872.570312 1339.351562 C 1870.171875 1339.320312 1868.890625 1339.300781 1868.878906 1339.300781 L 1868.78125 1339.300781 C 1868.78125 1339.300781 1867.5 1339.320312 1865.101562 1339.351562 C 1848.308594 1339.550781 1776.980469 1340.339844 1710.761719 1340.339844 C 1672.921875 1340.339844 1636.730469 1340.078125 1613.398438 1339.308594 C 1611.871094 1339.25 1610.339844 1339.230469 1608.808594 1339.230469 C 1591.039062 1339.230469 1573.03125 1342.601562 1555.648438 1348.230469 C 1529.570312 1356.679688 1504.878906 1370.21875 1484.449219 1385.390625 C 1474.238281 1392.96875 1465.089844 1400.96875 1457.359375 1408.960938 C 1449.640625 1416.96875 1443.339844 1424.960938 1438.828125 1432.628906 C 1433.078125 1442.398438 1422.28125 1458.75 1408.238281 1478.410156 C 1387.179688 1507.898438 1358.769531 1544.898438 1328.898438 1578.839844 C 1313.96875 1595.808594 1298.671875 1612.019531 1283.761719 1626.128906 C 1268.851562 1640.238281 1254.320312 1652.261719 1241.011719 1660.839844 C 1226.46875 1670.210938 1212.488281 1673.820312 1199.238281 1673.828125 "/>
<path fill-rule="nonzero" fill="rgb(78.90625%, 89.0625%, 90.234375%)" fill-opacity="1" d="M 2659.25 1591.390625 C 2676.371094 1564.121094 2687.871094 1537.539062 2695.449219 1512.929688 C 2706.089844 1478.421875 2709.03125 1447.78125 2709.03125 1424.421875 C 2709.03125 1397.429688 2705.109375 1380.148438 2704.53125 1377.738281 C 2702.238281 1357.558594 2698.941406 1336.351562 2694.789062 1314.351562 C 2695.371094 1312.800781 2695.949219 1311.261719 2696.519531 1309.679688 C 2700.949219 1332.78125 2704.449219 1355.019531 2706.828125 1376.078125 C 2706.828125 1376.078125 2732.800781 1478.011719 2659.25 1591.390625 M 1441.140625 1444.179688 C 1442.890625 1441.398438 1444.421875 1438.898438 1445.71875 1436.679688 C 1446.648438 1435.109375 1447.671875 1433.511719 1448.769531 1431.878906 C 1448.691406 1432.019531 1448.609375 1432.160156 1448.519531 1432.300781 C 1446.589844 1435.589844 1444.101562 1439.589844 1441.140625 1444.179688 "/>
<path fill-rule="nonzero" fill="rgb(33.714294%, 51.756287%, 63.084412%)" fill-opacity="1" d="M 2544.640625 1675.46875 C 2537 1675.46875 2529.109375 1674.320312 2521.050781 1671.679688 C 2526.960938 1673.160156 2532.738281 1673.820312 2538.398438 1673.828125 C 2550.878906 1673.828125 2562.761719 1670.578125 2573.609375 1665.601562 C 2584.46875 1660.621094 2594.28125 1653.921875 2602.53125 1647.171875 C 2619.03125 1633.660156 2629.238281 1619.941406 2629.429688 1619.671875 L 2629.480469 1619.609375 L 2629.519531 1619.558594 C 2659.578125 1581.621094 2677.441406 1544.199219 2687.808594 1510.570312 C 2698.171875 1476.941406 2701.03125 1447.109375 2701.039062 1424.421875 C 2701.039062 1396.761719 2696.78125 1379.710938 2696.710938 1379.429688 L 2696.640625 1379.160156 L 2696.609375 1378.890625 C 2694.78125 1362.710938 2692.289062 1345.828125 2689.21875 1328.378906 C 2691.101562 1323.871094 2692.96875 1319.171875 2694.789062 1314.351562 C 2698.941406 1336.351562 2702.238281 1357.558594 2704.53125 1377.738281 C 2705.109375 1380.148438 2709.03125 1397.429688 2709.03125 1424.421875 C 2709.03125 1447.78125 2706.089844 1478.421875 2695.449219 1512.929688 C 2687.871094 1537.539062 2676.371094 1564.121094 2659.25 1591.390625 C 2653.171875 1600.769531 2646.410156 1610.210938 2638.898438 1619.691406 C 2638.898438 1619.691406 2597.800781 1675.46875 2544.640625 1675.46875 M 1205.488281 1675.46875 C 1196.601562 1675.46875 1188.050781 1673.921875 1179.96875 1671.320312 C 1186.179688 1672.921875 1192.628906 1673.828125 1199.238281 1673.828125 C 1212.488281 1673.820312 1226.46875 1670.210938 1241.011719 1660.839844 C 1254.320312 1652.261719 1268.851562 1640.238281 1283.761719 1626.128906 C 1298.671875 1612.019531 1313.96875 1595.808594 1328.898438 1578.839844 C 1358.769531 1544.898438 1387.179688 1507.898438 1408.238281 1478.410156 C 1422.28125 1458.75 1433.078125 1442.398438 1438.828125 1432.628906 C 1443.339844 1424.960938 1449.640625 1416.96875 1457.359375 1408.960938 C 1465.089844 1400.96875 1474.238281 1392.96875 1484.449219 1385.390625 C 1504.878906 1370.21875 1529.570312 1356.679688 1555.648438 1348.230469 C 1573.03125 1342.601562 1591.039062 1339.230469 1608.808594 1339.230469 C 1610.339844 1339.230469 1611.871094 1339.25 1613.398438 1339.308594 C 1636.730469 1340.078125 1672.921875 1340.339844 1710.761719 1340.339844 C 1776.980469 1340.339844 1848.308594 1339.550781 1865.101562 1339.351562 C 1867.5 1339.320312 1868.78125 1339.300781 1868.78125 1339.300781 L 1868.878906 1339.300781 C 1868.890625 1339.300781 1870.171875 1339.320312 1872.570312 1339.351562 C 1874.960938 1339.378906 1878.46875 1339.421875 1882.921875 1339.46875 C 1891.820312 1339.558594 1904.480469 1339.691406 1919.5 1339.820312 C 1949.539062 1340.078125 1989.050781 1340.339844 2026.890625 1340.339844 C 2064.71875 1340.339844 2100.910156 1340.078125 2124.230469 1339.308594 C 2125.761719 1339.261719 2127.289062 1339.230469 2128.828125 1339.230469 C 2145.371094 1339.230469 2162.109375 1342.148438 2178.371094 1347.089844 C 2164.039062 1343.148438 2149.441406 1340.878906 2135.070312 1340.878906 C 2133.589844 1340.878906 2132.089844 1340.898438 2130.609375 1340.949219 C 2107.191406 1341.730469 2070.988281 1341.988281 2033.128906 1341.988281 C 1957.421875 1341.988281 1875.078125 1340.949219 1875.078125 1340.949219 C 1875.078125 1340.949219 1792.730469 1341.988281 1717 1341.988281 C 1679.140625 1341.988281 1642.941406 1341.730469 1619.511719 1340.949219 C 1618.03125 1340.898438 1616.539062 1340.878906 1615.050781 1340.878906 C 1546.25 1340.878906 1471.988281 1392.941406 1448.769531 1431.878906 C 1447.671875 1433.511719 1446.648438 1435.109375 1445.71875 1436.679688 C 1444.421875 1438.898438 1442.890625 1441.398438 1441.140625 1444.179688 C 1408.261719 1495.101562 1316.03125 1618.878906 1249.421875 1661.851562 C 1234.289062 1671.609375 1219.480469 1675.46875 1205.488281 1675.46875 "/>
<path fill-rule="nonzero" fill="rgb(16.088867%, 37.646484%, 53.318787%)" fill-opacity="1" d="M 1214.691406 1678.789062 L 1208.421875 1673.820312 C 1209.269531 1672.75 1294.601562 1565.109375 1364.691406 1483.960938 C 1485.328125 1344.269531 1519.929688 1312.261719 1582.828125 1318.628906 C 1643.878906 1324.808594 2152.480469 1318.859375 2172.839844 1318.621094 C 2180.929688 1316.328125 2244.378906 1306.410156 2392.898438 1495.03125 C 2467.289062 1589.511719 2507.671875 1665.089844 2508.058594 1665.839844 L 2501 1669.589844 C 2500.601562 1668.851562 2460.53125 1593.851562 2386.609375 1499.980469 C 2343.019531 1444.621094 2279.28125 1371.980469 2223.171875 1340.328125 C 2189.828125 1321.519531 2175.011719 1326.308594 2174.859375 1326.371094 L 2174.191406 1326.628906 L 2173.53125 1326.609375 C 2151.949219 1326.871094 1644.449219 1332.921875 1582.019531 1326.589844 C 1550.628906 1323.410156 1528.109375 1330.800781 1498.921875 1353.859375 C 1468.839844 1377.621094 1432.160156 1418.078125 1370.738281 1489.191406 C 1300.769531 1570.210938 1215.539062 1677.710938 1214.691406 1678.789062 "/>
<path fill-rule="nonzero" fill="rgb(82.03125%, 88.28125%, 89.451599%)" fill-opacity="1" d="M 1760.449219 879.910156 C 1734.140625 879.910156 1712.820312 858.589844 1712.820312 832.28125 C 1712.820312 805.980469 1734.140625 784.648438 1760.449219 784.648438 C 1786.75 784.648438 1808.070312 805.980469 1808.070312 832.28125 C 1808.070312 858.589844 1786.75 879.910156 1760.449219 879.910156 "/>
<path fill-rule="nonzero" fill="rgb(82.03125%, 88.28125%, 89.451599%)" fill-opacity="1" d="M 2010.300781 880.691406 C 1983.988281 880.691406 1962.671875 859.371094 1962.671875 833.058594 C 1962.671875 806.761719 1983.988281 785.429688 2010.300781 785.429688 C 2036.601562 785.429688 2057.921875 806.761719 2057.921875 833.058594 C 2057.921875 859.371094 2036.601562 880.691406 2010.300781 880.691406 "/>
<path fill-rule="nonzero" fill="rgb(100%, 100%, 100%)" fill-opacity="1" d="M 1798.699219 830.328125 C 1798.699219 851.238281 1781.75 868.199219 1760.839844 868.199219 C 1739.921875 868.199219 1722.96875 851.238281 1722.96875 830.328125 C 1722.96875 809.421875 1739.921875 792.460938 1760.839844 792.460938 C 1781.75 792.460938 1798.699219 809.421875 1798.699219 830.328125 "/>
<path fill-rule="nonzero" fill="rgb(16.088867%, 37.646484%, 53.318787%)" fill-opacity="1" d="M 1798.699219 830.328125 L 1794.699219 830.328125 C 1794.699219 839.691406 1790.921875 848.140625 1784.78125 854.28125 C 1778.640625 860.410156 1770.199219 864.191406 1760.839844 864.199219 C 1751.46875 864.191406 1743.03125 860.410156 1736.890625 854.28125 C 1730.75 848.140625 1726.96875 839.691406 1726.96875 830.328125 C 1726.96875 820.960938 1730.75 812.519531 1736.890625 806.378906 C 1743.03125 800.25 1751.46875 796.460938 1760.839844 796.460938 C 1770.199219 796.460938 1778.640625 800.25 1784.78125 806.378906 C 1790.921875 812.519531 1794.699219 820.960938 1794.699219 830.328125 L 1802.699219 830.328125 C 1802.710938 818.78125 1798.011719 808.289062 1790.441406 800.71875 C 1782.878906 793.148438 1772.390625 788.460938 1760.839844 788.460938 C 1749.289062 788.460938 1738.800781 793.148438 1731.230469 800.71875 C 1723.660156 808.289062 1718.96875 818.78125 1718.96875 830.328125 C 1718.96875 841.878906 1723.660156 852.371094 1731.230469 859.929688 C 1738.800781 867.511719 1749.289062 872.199219 1760.839844 872.199219 C 1772.390625 872.199219 1782.878906 867.511719 1790.441406 859.929688 C 1798.011719 852.371094 1802.710938 841.878906 1802.699219 830.328125 L 1798.699219 830.328125 "/>
<path fill-rule="nonzero" fill="rgb(100%, 100%, 100%)" fill-opacity="1" d="M 2046.988281 831.109375 C 2046.988281 852.019531 2030.039062 868.980469 2009.128906 868.980469 C 1988.210938 868.980469 1971.261719 852.019531 1971.261719 831.109375 C 1971.261719 810.199219 1988.210938 793.238281 2009.128906 793.238281 C 2030.039062 793.238281 2046.988281 810.199219 2046.988281 831.109375 "/>
<path fill-rule="nonzero" fill="rgb(16.088867%, 37.646484%, 53.318787%)" fill-opacity="1" d="M 2046.988281 831.109375 L 2042.988281 831.109375 C 2042.988281 840.46875 2039.210938 848.921875 2033.070312 855.058594 C 2026.929688 861.191406 2018.488281 864.980469 2009.128906 864.980469 C 1999.761719 864.980469 1991.320312 861.191406 1985.179688 855.058594 C 1979.039062 848.921875 1975.261719 840.46875 1975.261719 831.109375 C 1975.261719 821.738281 1979.039062 813.300781 1985.179688 807.160156 C 1991.320312 801.03125 1999.761719 797.238281 2009.128906 797.238281 C 2018.488281 797.238281 2026.929688 801.03125 2033.070312 807.160156 C 2039.210938 813.300781 2042.988281 821.738281 2042.988281 831.109375 L 2050.988281 831.109375 C 2051 819.558594 2046.300781 809.070312 2038.730469 801.511719 C 2031.171875 793.929688 2020.671875 789.238281 2009.128906 789.238281 C 1997.578125 789.238281 1987.078125 793.929688 1979.519531 801.511719 C 1971.949219 809.070312 1967.25 819.558594 1967.261719 831.109375 C 1967.25 842.660156 1971.949219 853.148438 1979.519531 860.710938 C 1987.078125 868.289062 1997.578125 872.980469 2009.128906 872.980469 C 2020.671875 872.980469 2031.171875 868.289062 2038.730469 860.710938 C 2046.300781 853.148438 2051 842.660156 2050.988281 831.109375 L 2046.988281 831.109375 "/>
<path fill-rule="nonzero" fill="rgb(82.03125%, 88.28125%, 89.451599%)" fill-opacity="1" d="M 1901.988281 960.910156 L 1859.109375 960.910156 C 1839.121094 960.910156 1822.910156 944.699219 1822.910156 924.699219 C 1822.910156 904.710938 1839.121094 888.5 1859.109375 888.5 L 1901.988281 888.5 C 1921.980469 888.5 1938.199219 904.710938 1938.199219 924.699219 C 1938.199219 944.699219 1921.980469 960.910156 1901.988281 960.910156 "/>
<path fill-rule="nonzero" fill="rgb(100%, 100%, 100%)" fill-opacity="1" d="M 1896.300781 954.078125 L 1861.171875 954.078125 C 1844.78125 954.078125 1831.5 940.800781 1831.5 924.410156 C 1831.5 908.03125 1844.78125 894.738281 1861.171875 894.738281 L 1896.300781 894.738281 C 1912.691406 894.738281 1925.96875 908.03125 1925.96875 924.410156 C 1925.96875 940.800781 1912.691406 954.078125 1896.300781 954.078125 "/>
<path fill-rule="nonzero" fill="rgb(16.088867%, 37.646484%, 53.318787%)" fill-opacity="1" d="M 1896.300781 954.078125 L 1896.300781 950.078125 L 1861.171875 950.078125 C 1854.070312 950.078125 1847.671875 947.21875 1843.019531 942.558594 C 1838.359375 937.910156 1835.5 931.511719 1835.5 924.410156 C 1835.5 917.308594 1838.359375 910.921875 1843.019531 906.261719 C 1847.671875 901.609375 1854.070312 898.75 1861.171875 898.738281 L 1896.300781 898.738281 C 1903.398438 898.75 1909.800781 901.609375 1914.449219 906.261719 C 1919.101562 910.921875 1921.96875 917.308594 1921.96875 924.410156 C 1921.96875 931.511719 1919.101562 937.910156 1914.449219 942.558594 C 1909.800781 947.21875 1903.398438 950.078125 1896.300781 950.078125 L 1896.300781 958.078125 C 1905.589844 958.089844 1914.03125 954.308594 1920.109375 948.21875 C 1926.199219 942.140625 1929.96875 933.699219 1929.96875 924.410156 C 1929.96875 915.128906 1926.199219 906.691406 1920.109375 900.609375 C 1914.03125 894.519531 1905.589844 890.738281 1896.300781 890.738281 L 1861.171875 890.738281 C 1851.878906 890.738281 1843.441406 894.519531 1837.359375 900.609375 C 1831.269531 906.691406 1827.488281 915.128906 1827.5 924.410156 C 1827.488281 933.699219 1831.269531 942.140625 1837.359375 948.21875 C 1843.441406 954.308594 1851.878906 958.089844 1861.171875 958.078125 L 1896.300781 958.078125 L 1896.300781 954.078125 "/>
<path fill-rule="nonzero" fill="rgb(32.542419%, 65.818787%, 78.90625%)" fill-opacity="1" d="M 2278.96875 726.171875 C 2278.96875 703.128906 2297.640625 684.460938 2320.679688 684.460938 C 2330.179688 684.460938 2338.941406 687.640625 2345.960938 693 C 2338.328125 683.011719 2326.320312 676.570312 2312.789062 676.570312 C 2289.75 676.570312 2271.078125 695.238281 2271.078125 718.28125 C 2271.078125 731.808594 2277.519531 743.820312 2287.511719 751.441406 C 2282.148438 744.429688 2278.96875 735.671875 2278.96875 726.171875 "/>
<path fill-rule="nonzero" fill="rgb(32.542419%, 65.818787%, 78.90625%)" fill-opacity="1" d="M 2278.96875 951.808594 C 2278.96875 928.78125 2297.640625 910.101562 2320.679688 910.101562 C 2330.179688 910.101562 2338.941406 913.289062 2345.960938 918.640625 C 2338.328125 908.660156 2326.320312 902.210938 2312.789062 902.210938 C 2289.75 902.210938 2271.078125 920.890625 2271.078125 943.921875 C 2271.078125 957.449219 2277.519531 969.46875 2287.511719 977.089844 C 2282.148438 970.078125 2278.96875 961.320312 2278.96875 951.808594 "/>
<path fill-rule="nonzero" fill="rgb(32.542419%, 65.818787%, 78.90625%)" fill-opacity="1" d="M 2388.28125 837.039062 C 2388.28125 814 2406.949219 795.328125 2429.988281 795.328125 C 2439.488281 795.328125 2448.25 798.511719 2455.261719 803.871094 C 2447.640625 793.878906 2435.628906 787.441406 2422.101562 787.441406 C 2399.058594 787.441406 2380.390625 806.109375 2380.390625 829.148438 C 2380.390625 842.679688 2386.828125 854.691406 2396.820312 862.320312 C 2391.460938 855.300781 2388.28125 846.539062 2388.28125 837.039062 "/>
<path fill-rule="nonzero" fill="rgb(32.542419%, 65.818787%, 78.90625%)" fill-opacity="1" d="M 2164.96875 835.480469 C 2164.96875 812.441406 2183.648438 793.769531 2206.679688 793.769531 C 2216.191406 793.769531 2224.949219 796.949219 2231.960938 802.308594 C 2224.339844 792.320312 2212.320312 785.878906 2198.789062 785.878906 C 2175.761719 785.878906 2157.078125 804.550781 2157.078125 827.589844 C 2157.078125 841.109375 2163.53125 853.128906 2173.511719 860.75 C 2168.160156 853.738281 2164.96875 844.980469 2164.96875 835.480469 "/>
<path fill-rule="nonzero" fill="rgb(100%, 100%, 100%)" fill-opacity="1" d="M 1580.300781 837.308594 C 1580.300781 905.410156 1525.101562 960.609375 1457.011719 960.609375 C 1388.910156 960.609375 1333.710938 905.410156 1333.710938 837.308594 C 1333.710938 769.21875 1388.910156 714.019531 1457.011719 714.019531 C 1525.101562 714.019531 1580.300781 769.21875 1580.300781 837.308594 "/>
<path fill-rule="nonzero" fill="rgb(16.088867%, 37.646484%, 53.318787%)" fill-opacity="1" d="M 1580.300781 837.308594 L 1576.300781 837.308594 C 1576.300781 870.269531 1562.949219 900.070312 1541.359375 921.671875 C 1519.761719 943.261719 1489.960938 956.609375 1457.011719 956.609375 C 1424.050781 956.609375 1394.25 943.261719 1372.648438 921.671875 C 1351.058594 900.070312 1337.710938 870.269531 1337.710938 837.308594 C 1337.710938 804.359375 1351.058594 774.558594 1372.648438 752.960938 C 1394.25 731.371094 1424.050781 718.019531 1457.011719 718.019531 C 1489.960938 718.019531 1519.761719 731.371094 1541.359375 752.960938 C 1562.949219 774.558594 1576.300781 804.359375 1576.300781 837.308594 L 1584.300781 837.308594 C 1584.300781 802.179688 1570.050781 770.328125 1547.019531 747.300781 C 1523.988281 724.269531 1492.140625 710.019531 1457.011719 710.019531 C 1421.871094 710.019531 1390.019531 724.269531 1366.988281 747.300781 C 1343.960938 770.328125 1329.710938 802.179688 1329.710938 837.308594 C 1329.710938 872.449219 1343.960938 904.300781 1366.988281 927.328125 C 1390.019531 950.359375 1421.871094 964.609375 1457.011719 964.609375 C 1492.140625 964.609375 1523.988281 950.359375 1547.019531 927.328125 C 1570.050781 904.300781 1584.300781 872.449219 1584.300781 837.308594 L 1580.300781 837.308594 "/>
<path fill-rule="nonzero" fill="rgb(16.088867%, 39.208984%, 53.318787%)" fill-opacity="1" d="M 1558.25 837.308594 C 1558.25 893.230469 1512.921875 938.558594 1457.011719 938.558594 C 1401.089844 938.558594 1355.761719 893.230469 1355.761719 837.308594 C 1355.761719 781.398438 1401.089844 736.070312 1457.011719 736.070312 C 1512.921875 736.070312 1558.25 781.398438 1558.25 837.308594 "/>
<path fill-rule="nonzero" fill="rgb(22.75238%, 48.242188%, 60.742188%)" fill-opacity="1" d="M 1520.878906 835.679688 C 1520.878906 871.878906 1491.53125 901.21875 1455.339844 901.21875 C 1419.140625 901.21875 1389.789062 871.878906 1389.789062 835.679688 C 1389.789062 799.480469 1419.140625 770.140625 1455.339844 770.140625 C 1491.53125 770.140625 1520.878906 799.480469 1520.878906 835.679688 "/>
<path fill-rule="nonzero" fill="rgb(25.87738%, 54.492188%, 65.818787%)" fill-opacity="1" d="M 1496.109375 784.210938 C 1497.128906 788.789062 1497.679688 793.550781 1497.679688 798.441406 C 1497.679688 834.640625 1468.339844 863.980469 1432.140625 863.980469 C 1416.398438 863.980469 1401.960938 858.429688 1390.671875 849.191406 C 1397.171875 878.539062 1423.328125 900.488281 1454.640625 900.488281 C 1490.839844 900.488281 1520.179688 871.148438 1520.179688 834.949219 C 1520.179688 814.488281 1510.800781 796.230469 1496.109375 784.210938 "/>
<path fill-rule="nonzero" fill="rgb(25.87738%, 54.492188%, 65.818787%)" fill-opacity="1" d="M 1542.21875 837.308594 L 1541.71875 837.308594 C 1541.71875 860.710938 1532.238281 881.878906 1516.910156 897.21875 C 1501.578125 912.550781 1480.398438 922.03125 1457.011719 922.03125 C 1433.609375 922.03125 1412.441406 912.550781 1397.101562 897.21875 C 1381.769531 881.878906 1372.289062 860.710938 1372.289062 837.308594 C 1372.289062 813.921875 1381.769531 792.738281 1397.101562 777.410156 C 1412.441406 762.078125 1433.609375 752.601562 1457.011719 752.601562 C 1480.398438 752.601562 1501.578125 762.078125 1516.910156 777.410156 C 1532.238281 792.738281 1541.71875 813.921875 1541.71875 837.308594 L 1542.71875 837.308594 C 1542.71875 789.980469 1504.339844 751.601562 1457.011719 751.601562 C 1409.671875 751.601562 1371.289062 789.980469 1371.289062 837.308594 C 1371.289062 884.648438 1409.671875 923.03125 1457.011719 923.03125 C 1504.339844 923.03125 1542.71875 884.648438 1542.71875 837.308594 L 1542.21875 837.308594 "/>
<path fill-rule="nonzero" fill="rgb(100%, 100%, 100%)" fill-opacity="1" d="M 2218.980469 1090.289062 C 2218.980469 1158.378906 2163.78125 1213.578125 2095.691406 1213.578125 C 2027.589844 1213.578125 1972.390625 1158.378906 1972.390625 1090.289062 C 1972.390625 1022.191406 2027.589844 966.988281 2095.691406 966.988281 C 2163.78125 966.988281 2218.980469 1022.191406 2218.980469 1090.289062 "/>
<path fill-rule="nonzero" fill="rgb(16.088867%, 37.646484%, 53.318787%)" fill-opacity="1" d="M 2218.980469 1090.289062 L 2214.980469 1090.289062 C 2214.980469 1123.238281 2201.628906 1153.039062 2180.039062 1174.640625 C 2158.441406 1196.238281 2128.640625 1209.578125 2095.691406 1209.578125 C 2062.730469 1209.578125 2032.929688 1196.238281 2011.328125 1174.640625 C 1989.738281 1153.039062 1976.390625 1123.238281 1976.390625 1090.289062 C 1976.390625 1057.328125 1989.738281 1027.539062 2011.328125 1005.929688 C 2032.929688 984.339844 2062.730469 970.988281 2095.691406 970.988281 C 2128.640625 970.988281 2158.441406 984.339844 2180.039062 1005.929688 C 2201.628906 1027.539062 2214.980469 1057.328125 2214.980469 1090.289062 L 2222.980469 1090.289062 C 2222.980469 1055.148438 2208.730469 1023.300781 2185.699219 1000.28125 C 2162.671875 977.25 2130.820312 962.988281 2095.691406 962.988281 C 2060.550781 962.988281 2028.699219 977.25 2005.671875 1000.28125 C 1982.640625 1023.300781 1968.390625 1055.148438 1968.390625 1090.289062 C 1968.390625 1125.429688 1982.640625 1157.28125 2005.671875 1180.300781 C 2028.699219 1203.328125 2060.550781 1217.589844 2095.691406 1217.578125 C 2130.820312 1217.589844 2162.671875 1203.328125 2185.699219 1180.300781 C 2208.730469 1157.28125 2222.980469 1125.429688 2222.980469 1090.289062 L 2218.980469 1090.289062 "/>
<path fill-rule="nonzero" fill="rgb(16.088867%, 39.208984%, 53.318787%)" fill-opacity="1" d="M 2196.929688 1090.289062 C 2196.929688 1146.210938 2151.601562 1191.53125 2095.691406 1191.53125 C 2039.769531 1191.53125 1994.441406 1146.210938 1994.441406 1090.289062 C 1994.441406 1034.371094 2039.769531 989.039062 2095.691406 989.039062 C 2151.601562 989.039062 2196.929688 1034.371094 2196.929688 1090.289062 "/>
<path fill-rule="nonzero" fill="rgb(22.75238%, 48.242188%, 60.742188%)" fill-opacity="1" d="M 2159.558594 1088.648438 C 2159.558594 1124.851562 2130.210938 1154.191406 2094.019531 1154.191406 C 2057.820312 1154.191406 2028.46875 1124.851562 2028.46875 1088.648438 C 2028.46875 1052.460938 2057.820312 1023.109375 2094.019531 1023.109375 C 2130.210938 1023.109375 2159.558594 1052.460938 2159.558594 1088.648438 "/>
<path fill-rule="nonzero" fill="rgb(25.87738%, 54.492188%, 65.818787%)" fill-opacity="1" d="M 2134.789062 1037.179688 C 2135.808594 1041.769531 2136.359375 1046.53125 2136.359375 1051.421875 C 2136.359375 1087.609375 2107.019531 1116.960938 2070.820312 1116.960938 C 2055.078125 1116.960938 2040.640625 1111.410156 2029.351562 1102.160156 C 2035.851562 1131.511719 2062.011719 1153.46875 2093.320312 1153.46875 C 2129.519531 1153.46875 2158.859375 1124.121094 2158.859375 1087.929688 C 2158.859375 1067.46875 2149.480469 1049.199219 2134.789062 1037.179688 "/>
<path fill-rule="nonzero" fill="rgb(25.87738%, 54.492188%, 65.818787%)" fill-opacity="1" d="M 2180.898438 1090.289062 L 2180.398438 1090.289062 C 2180.398438 1113.679688 2170.921875 1134.859375 2155.589844 1150.191406 C 2140.261719 1165.519531 2119.078125 1175 2095.691406 1175 C 2072.289062 1175 2051.121094 1165.519531 2035.78125 1150.191406 C 2020.449219 1134.859375 2010.96875 1113.679688 2010.96875 1090.289062 C 2010.96875 1066.890625 2020.449219 1045.71875 2035.78125 1030.390625 C 2051.121094 1015.058594 2072.289062 1005.570312 2095.691406 1005.570312 C 2119.078125 1005.570312 2140.261719 1015.058594 2155.589844 1030.390625 C 2170.921875 1045.71875 2180.398438 1066.890625 2180.398438 1090.289062 L 2181.398438 1090.289062 C 2181.398438 1042.949219 2143.019531 1004.570312 2095.691406 1004.570312 C 2048.351562 1004.578125 2009.96875 1042.949219 2009.96875 1090.289062 C 2009.96875 1137.628906 2048.351562 1176 2095.691406 1176 C 2143.019531 1176 2181.398438 1137.628906 2181.398438 1090.289062 L 2180.898438 1090.289062 "/>
</svg>
