<?xml version="1.0" encoding="UTF-8"?>
<svg xmlns="http://www.w3.org/2000/svg" xmlns:xlink="http://www.w3.org/1999/xlink" width="3750" height="3750" viewBox="0 0 3750 3750">

<path fill-rule="nonzero" fill="rgb(0%, 0%, 0%)" fill-opacity="1" d="M 1392.550781 897.511719 C 1388.089844 897.480469 1383.671875 897.578125 1379.21875 897.960938 C 1348.039062 900.519531 1317.121094 912.710938 1290.160156 935.320312 C 1275.109375 947.929688 1263.601562 962.308594 1255.730469 977.511719 L 1195.679688 1079.308594 C 1192.839844 1083.601562 1190.320312 1087.820312 1188.050781 1092.199219 L 1187.769531 1092.660156 C 1174.839844 1117.75 1171.101562 1144.019531 1177.21875 1168.390625 C 1185.328125 1200.628906 1207.820312 1226.75 1236.691406 1249.101562 C 1294.441406 1293.808594 1381.601562 1327.011719 1473.710938 1354.128906 C 1538.5 1373.210938 1605.558594 1388.769531 1665.449219 1401 L 1158.621094 1401 C 1094.320312 1401 1042.601562 1452.871094 1042.601562 1517.171875 L 1042.601562 1680.199219 C 1042.601562 1744.5 1094.320312 1796.21875 1158.621094 1796.21875 L 2591.230469 1796.21875 C 2655.53125 1796.21875 2707.398438 1744.5 2707.398438 1680.199219 L 2707.398438 1517.171875 C 2707.398438 1452.871094 2655.53125 1401 2591.230469 1401 L 2084.398438 1401 C 2144.300781 1388.769531 2211.351562 1373.210938 2276.148438 1354.128906 C 2368.25 1327.011719 2455.558594 1293.808594 2513.308594 1249.101562 C 2542.179688 1226.738281 2564.671875 1200.628906 2572.78125 1168.390625 C 2578.898438 1144.019531 2575.050781 1117.75 2562.089844 1092.660156 L 2561.808594 1092.199219 C 2559.539062 1087.820312 2556.988281 1083.601562 2554.179688 1079.308594 L 2494.269531 977.511719 L 2494.269531 977.359375 C 2486.421875 962.199219 2474.71875 947.898438 2459.699219 935.320312 C 2432.738281 912.710938 2401.960938 900.511719 2370.789062 897.960938 C 2366.328125 897.601562 2361.769531 897.480469 2357.320312 897.511719 C 2321.640625 897.730469 2286.589844 909.339844 2252.730469 927.691406 C 2185 964.390625 2120.460938 1028.121094 2062.589844 1096.578125 C 1976.140625 1198.859375 1905.269531 1312.78125 1874.949219 1363.921875 C 1844.621094 1312.78125 1773.890625 1198.859375 1687.449219 1096.578125 C 1629.578125 1028.121094 1564.890625 964.390625 1497.160156 927.691406 C 1463.300781 909.339844 1428.25 897.730469 1392.570312 897.511719 Z M 2357.730469 952.148438 L 2357.730469 952.300781 C 2362.179688 952.269531 2366.460938 952.390625 2370.769531 952.890625 C 2389.359375 955.050781 2406.75 962.449219 2424.53125 977.359375 C 2446.410156 995.699219 2451.75 1009.800781 2451.179688 1025.25 C 2450.949219 1031.730469 2449.191406 1039.011719 2445.910156 1046.929688 C 2436.980469 1067.648438 2415.960938 1093.128906 2386.140625 1119.148438 C 2345.449219 1153.878906 2288.988281 1189.949219 2228.519531 1222.710938 C 2216.191406 1229.390625 2203.96875 1235.839844 2191.898438 1242.050781 C 2185.839844 1245.171875 2179.820312 1248.230469 2173.730469 1251.28125 C 2124.371094 1275.941406 2074.589844 1298.351562 2030.320312 1317.199219 C 1999.570312 1330.109375 1971.820312 1341.039062 1948.140625 1350.160156 C 1982.890625 1293.589844 2033.410156 1215.769531 2104.300781 1131.890625 C 2159.859375 1066.160156 2221.890625 1006.699219 2278.761719 975.890625 C 2307.191406 960.480469 2334 952.308594 2357.71875 952.160156 Z M 1392.25 952.300781 C 1415.980469 952.441406 1442.628906 960.480469 1471.058594 975.878906 C 1527.929688 1006.691406 1589.960938 1066.148438 1645.519531 1131.890625 C 1716.421875 1215.761719 1766.929688 1293.578125 1801.679688 1350.148438 C 1778 1341.03125 1750.25 1330.101562 1719.5 1317.191406 C 1675.230469 1298.339844 1625.601562 1275.941406 1576.230469 1251.269531 C 1570.140625 1248.21875 1564.019531 1245.160156 1557.929688 1242.039062 C 1545.878906 1235.828125 1533.769531 1229.390625 1521.449219 1222.710938 C 1460.980469 1189.941406 1404.378906 1153.871094 1363.679688 1119.140625 C 1333.859375 1093.121094 1313 1067.640625 1304.070312 1046.929688 C 1300.78125 1039 1299.019531 1031.71875 1298.789062 1025.25 C 1298.230469 1009.789062 1303.558594 995.691406 1325.441406 977.351562 C 1343.210938 962.441406 1360.609375 955.03125 1379.199219 952.878906 C 1383.480469 952.398438 1387.789062 952.261719 1392.238281 952.289062 Z M 1328.390625 1863.429688 C 1225.910156 1863.429688 1143.519531 1945.960938 1143.519531 2048.441406 L 1143.519531 2667.628906 C 1143.519531 2770.105469 1225.910156 2852.492188 1328.390625 2852.492188 L 1803.578125 2852.492188 L 1803.578125 1863.429688 Z M 1946.261719 1863.429688 L 1946.261719 2852.492188 L 2421.449219 2852.492188 C 2523.929688 2852.492188 2606.460938 2770.105469 2606.460938 2667.628906 L 2606.460938 2048.441406 C 2606.460938 1945.960938 2523.929688 1863.429688 2421.449219 1863.429688 Z M 1946.261719 1863.429688 "/>
</svg>
