<?xml version="1.0" encoding="UTF-8"?>
<svg xmlns="http://www.w3.org/2000/svg" xmlns:xlink="http://www.w3.org/1999/xlink" width="2001" height="2001" viewBox="0 0 2001 2001">
<path fill-rule="nonzero" fill="rgb(96.875%, 11.767578%, 11.767578%)" fill-opacity="1" d="M 788.296875 1806.039062 C 670.042969 1770.605469 564.28125 1706.265625 479.226562 1621.210938 C 379.371094 1521.351562 308.058594 1392.960938 278.5625 1249.320312 C 268.691406 1201.234375 263.503906 1151.441406 263.503906 1100.4375 C 263.503906 897.070312 345.941406 712.949219 479.226562 579.660156 C 560.644531 498.238281 661.039062 435.800781 773.195312 399.53125 L 773.195312 645.171875 C 723.828125 669.808594 679.03125 702.238281 640.417969 740.851562 C 561.410156 819.859375 508.28125 924.761719 494.839844 1041.734375 C 492.625 1060.996094 491.484375 1080.582031 491.484375 1100.4375 C 491.484375 1240.867188 548.398438 1368 640.417969 1460.019531 C 732.433594 1552.035156 859.566406 1608.949219 1000 1608.949219 C 1140.429688 1608.949219 1267.570312 1552.035156 1359.578125 1460.019531 C 1451.601562 1368 1508.511719 1240.867188 1508.511719 1100.4375 C 1508.511719 960 1451.601562 832.871094 1359.578125 740.851562 C 1320.96875 702.238281 1276.171875 669.808594 1226.800781 645.171875 L 1226.800781 407.53125 C 1494.558594 523.550781 1670.511719 788.328125 1670.511719 1083.578125 C 1670.511719 1490.558594 1340.578125 1820.484375 933.601562 1820.484375 C 884.089844 1820.484375 835.480469 1815.515625 788.296875 1806.039062 "/>
<path fill-rule="nonzero" fill="rgb(80.076599%, 8.616638%, 8.616638%)" fill-opacity="1" d="M 1226.800781 399.53125 C 1338.960938 435.800781 1439.351562 498.238281 1520.769531 579.660156 C 1654.058594 712.949219 1736.5 897.070312 1736.5 1100.4375 C 1736.5 1303.800781 1654.058594 1487.925781 1520.769531 1621.210938 C 1387.488281 1754.492188 1203.371094 1836.933594 1000 1836.933594 C 926.410156 1836.933594 855.347656 1826.132812 788.296875 1806.039062 C 835.480469 1815.515625 884.089844 1820.484375 933.601562 1820.484375 C 1340.578125 1820.484375 1670.511719 1490.558594 1670.511719 1083.578125 C 1670.511719 788.328125 1494.558594 523.550781 1226.800781 407.53125 L 1226.800781 399.53125 "/>
<path fill-rule="nonzero" fill="rgb(80.076599%, 8.616638%, 8.616638%)" fill-opacity="1" d="M 1058.679688 179.421875 C 1099.699219 200.78125 1127.878906 243.730469 1127.878906 292.941406 L 1127.878906 746.558594 C 1127.878906 816.890625 1070.328125 874.429688 1000 874.429688 C 965.730469 874.429688 934.503906 860.769531 911.480469 838.621094 C 925.914062 844.308594 941.609375 847.429688 958 847.429688 C 1028.328125 847.429688 1085.878906 789.890625 1085.878906 719.558594 L 1085.878906 265.941406 C 1085.878906 233.609375 1076.089844 203.03125 1058.679688 179.421875 "/>
<path fill-rule="nonzero" fill="rgb(96.875%, 11.767578%, 11.767578%)" fill-opacity="1" d="M 1000 165.070312 C 1021.121094 165.070312 1041.078125 170.261719 1058.679688 179.421875 C 1076.089844 203.03125 1085.878906 233.609375 1085.878906 265.941406 L 1085.878906 719.558594 C 1085.878906 789.890625 1028.328125 847.429688 958 847.429688 C 941.609375 847.429688 925.914062 844.308594 911.480469 838.621094 C 887.257812 815.320312 872.121094 782.621094 872.121094 746.558594 L 872.121094 292.941406 C 872.121094 222.609375 929.667969 165.070312 1000 165.070312 "/>
</svg>
