<?xml version="1.0" encoding="UTF-8"?>
<svg xmlns="http://www.w3.org/2000/svg" xmlns:xlink="http://www.w3.org/1999/xlink" width="2501" height="2501" viewBox="0 0 2501 2501">
<path fill-rule="evenodd" fill="rgb(100%, 100%, 100%)" fill-opacity="1" d="M 957.886719 1179.589844 C 846.558594 1188.320312 762.65625 1284.988281 770.054688 1396.730469 C 774.957031 1470.78125 818.738281 1533 880.171875 1564.789062 C 908.527344 1579.460938 941.929688 1585.449219 976.550781 1587.59375 L 1528.359375 1588.109375 C 1579.75 1585.253906 1629.140625 1573.964844 1667.480469 1537.992188 C 1710.539062 1497.589844 1735.828125 1438.941406 1731.621094 1375.429688 C 1725.960938 1289.878906 1668.410156 1220.140625 1591.699219 1194.851562 C 1602.261719 1167.511719 1607.199219 1137.5 1605.128906 1106.328125 C 1597.550781 991.789062 1498.558594 905.089844 1384.019531 912.671875 C 1297.398438 918.410156 1226.71875 976.429688 1200.679688 1053.910156 C 1172.511719 1031.261719 1136.101562 1018.699219 1097.191406 1021.269531 C 1015.050781 1026.710938 952.828125 1097.519531 957.886719 1179.589844 "/>
<path fill="none" stroke-width="479.999" stroke-linecap="butt" stroke-linejoin="miter" stroke="rgb(0%, 0%, 0%)" stroke-opacity="1" stroke-miterlimit="2.61313" d="M 9578.867188 13214.101562 C 8465.585938 13126.796875 7626.5625 12160.117188 7700.546875 11042.695312 C 7749.570312 10302.1875 8187.382812 9680 8801.71875 9362.109375 C 9085.273438 9215.390625 9419.296875 9155.507812 9765.507812 9134.0625 L 15283.59375 9128.90625 C 15797.5 9157.460938 16291.40625 9270.351562 16674.804688 9630.078125 C 17105.390625 10034.101562 17358.28125 10620.585938 17316.210938 11255.703125 C 17259.609375 12111.210938 16684.101562 12808.59375 15916.992188 13061.484375 C 16022.617188 13334.882812 16071.992188 13635 16051.289062 13946.71875 C 15975.507812 15092.109375 14985.585938 15959.101562 13840.195312 15883.28125 C 12973.984375 15825.898438 12267.1875 15245.703125 12006.796875 14470.898438 C 11725.117188 14697.382812 11361.015625 14823.007812 10971.914062 14797.304688 C 10150.507812 14742.890625 9528.28125 14034.804688 9578.867188 13214.101562 Z M 9578.867188 13214.101562 " transform="matrix(0.1, 0, 0, -0.1, 0, 2501)"/>
</svg>
