<?xml version="1.0" encoding="UTF-8"?>
<svg xmlns="http://www.w3.org/2000/svg" xmlns:xlink="http://www.w3.org/1999/xlink" width="2834.88" height="2834.88" viewBox="0 0 2834.88 2834.88">
<path fill-rule="evenodd" fill="rgb(0%, 0%, 0%)" fill-opacity="1" d="M 1394.019531 1944.480469 L 2191.371094 1315.371094 C 2199.039062 1309.320312 2210.300781 1308.609375 2219.101562 1313.621094 L 2241.679688 1326.460938 C 2251.730469 1332.179688 2258.289062 1341.808594 2259.351562 1352.410156 C 2260.421875 1363.019531 2255.871094 1373.339844 2247.089844 1380.21875 L 1419.261719 2029.015625 C 1412.011719 2034.699219 1401.53125 2035.660156 1392.921875 2031.433594 L 749.425781 1715.429688 C 749.425781 1715.429688 706.050781 1694.578125 706.050781 1694.578125 C 702.726562 1693.96875 695.78125 1692.988281 688.074219 1693.621094 C 682.433594 1694.078125 676.101562 1695.289062 671.226562 1699.289062 C 665.378906 1704.101562 662.445312 1712.410156 662.40625 1725.21875 C 662.144531 1806.609375 726.808594 1848.359375 733.324219 1852.359375 L 1405.179688 2180.691406 L 2202.53125 1551.578125 C 2210.199219 1545.53125 2221.460938 1544.820312 2230.261719 1549.828125 L 2252.839844 1562.671875 C 2262.890625 1568.390625 2269.449219 1578.019531 2270.511719 1588.621094 C 2271.578125 1599.230469 2267.03125 1609.550781 2258.25 1616.429688 L 1430.421875 2265.226562 C 1423.171875 2270.910156 1412.691406 2271.871094 1404.078125 2267.644531 L 687.863281 1915.929688 C 686.714844 1915.367188 685.617188 1914.71875 684.582031 1913.992188 C 684.582031 1913.992188 561.277344 1826.578125 587.617188 1703.578125 C 595.851562 1665.121094 623.992188 1639.128906 628.097656 1635.511719 C 595.898438 1598.25 561.171875 1538.761719 576.457031 1467.371094 C 585.347656 1425.851562 617.4375 1398.871094 617.4375 1398.871094 C 617.613281 1398.71875 617.789062 1398.570312 617.964844 1398.429688 C 586.148438 1361.070312 552.628906 1302.261719 567.699219 1231.878906 C 576.589844 1190.371094 608.679688 1163.378906 608.679688 1163.378906 C 609.089844 1163.03125 609.515625 1162.699219 609.953125 1162.378906 C 609.953125 1162.378906 1276.941406 677.300781 1431.261719 580.101562 C 1465.679688 558.429688 1519.449219 562.039062 1558.300781 577.289062 C 1558.488281 577.371094 1558.691406 577.449219 1558.878906 577.53125 L 2234.761719 862.238281 C 2242.058594 865.320312 2247.210938 871.519531 2248.410156 878.679688 C 2249.609375 885.851562 2246.699219 892.988281 2240.691406 897.621094 L 1395.929688 1549.21875 C 1388.738281 1554.769531 1378.441406 1555.71875 1369.921875 1551.621094 C 1369.921875 1551.621094 733.125 1245.46875 686.132812 1222.878906 C 682.808594 1222.269531 675.863281 1221.300781 668.15625 1221.921875 C 662.515625 1222.378906 656.183594 1223.589844 651.3125 1227.589844 C 645.460938 1232.398438 642.53125 1240.710938 642.488281 1253.519531 C 642.226562 1334.910156 706.890625 1376.660156 713.40625 1380.660156 L 1385.261719 1708.988281 L 2182.621094 1079.878906 C 2190.289062 1073.828125 2201.539062 1073.121094 2210.339844 1078.128906 L 2232.921875 1090.96875 C 2242.96875 1096.691406 2249.53125 1106.320312 2250.601562 1116.929688 C 2251.660156 1127.53125 2247.109375 1137.851562 2238.328125 1144.730469 L 1410.5 1793.53125 C 1403.25 1799.210938 1392.769531 1800.171875 1384.160156 1795.949219 L 782.527344 1500.5 C 782.527344 1500.5 694.890625 1458.371094 694.890625 1458.371094 C 691.566406 1457.761719 684.621094 1456.78125 676.914062 1457.410156 C 671.273438 1457.871094 664.941406 1459.078125 660.070312 1463.078125 C 654.21875 1467.878906 651.289062 1476.199219 651.246094 1489.011719 C 650.984375 1570.398438 715.648438 1612.148438 722.164062 1616.148438 L 1394.019531 1944.480469 "/>
</svg>
