<?xml version="1.0" encoding="UTF-8"?>
<svg xmlns="http://www.w3.org/2000/svg" xmlns:xlink="http://www.w3.org/1999/xlink" width="2100" height="2100" viewBox="0 0 2100 2100">
<rect x="-210" y="-210" width="2520" height="2520" fill="rgb(100%, 100%, 100%)" fill-opacity="1"/>
<path fill-rule="nonzero" fill="rgb(0%, 0%, 0%)" fill-opacity="1" d="M 920.703125 1711.078125 C 812.308594 1687.714844 702.46875 1627.929688 615.414062 1544.914062 L 539.234375 1472.269531 L 558.359375 1258.351562 C 587.511719 1153.484375 636.246094 1072.089844 712.675781 1000.589844 C 750.488281 965.21875 786.050781 936.28125 791.710938 936.28125 C 797.378906 936.28125 824.0625 953.121094 851.03125 973.710938 C 970.113281 1064.609375 1129.878906 1064.609375 1248.96875 973.710938 C 1275.941406 953.121094 1302.628906 936.28125 1308.289062 936.28125 C 1313.960938 936.28125 1349.511719 965.21875 1387.320312 1000.589844 C 1463.75 1072.089844 1512.480469 1153.484375 1541.640625 1258.351562 L 1560.769531 1472.269531 L 1484.589844 1544.914062 C 1327.628906 1694.589844 1123.398438 1754.773438 920.703125 1711.078125 Z M 948.882812 961.710938 C 873.8125 938.671875 788.214844 851.25 765.363281 774.300781 C 729.117188 652.238281 752.910156 553.160156 839.191406 466.878906 C 961.699219 344.371094 1138.300781 344.371094 1260.808594 466.878906 C 1383.78125 589.859375 1383.359375 765.941406 1259.820312 889.5 C 1175.351562 973.96875 1069.148438 998.640625 948.902344 961.710938 Z M 948.882812 961.710938 "/>
</svg>
