<?xml version="1.0" encoding="UTF-8"?>
<svg xmlns="http://www.w3.org/2000/svg" xmlns:xlink="http://www.w3.org/1999/xlink" width="4000" height="3000" viewBox="0 0 4000 3000">

<path fill-rule="evenodd" fill="rgb(0%, 0%, 0%)" fill-opacity="1" d="M 197.855469 1340.5 C 197.359375 1342.140625 197.046875 1343.859375 196.9375 1345.640625 L 196.929688 1345.828125 L 196.925781 1345.898438 L 196.925781 1345.910156 L 196.921875 1345.949219 L 196.914062 1346.121094 L 196.914062 1346.171875 L 196.910156 1346.25 L 196.90625 1346.398438 L 196.90625 1346.441406 L 196.902344 1346.570312 L 196.902344 1346.699219 C 196.898438 1346.789062 196.898438 1346.890625 196.898438 1346.980469 L 196.902344 1347.25 L 196.902344 1347.390625 L 196.90625 1347.511719 L 196.90625 1347.550781 L 196.910156 1347.710938 L 196.914062 1347.78125 L 196.914062 1347.839844 L 196.921875 1348.011719 L 196.925781 1348.050781 L 196.925781 1348.058594 L 196.929688 1348.128906 L 196.9375 1348.308594 L 196.9375 1348.320312 C 197.042969 1350.101562 197.359375 1351.808594 197.855469 1353.449219 C 198.882812 1356.859375 200.746094 1360.070312 203.4375 1362.761719 L 344.535156 1503.859375 C 353.246094 1512.570312 367.390625 1512.570312 376.105469 1503.859375 C 384.816406 1495.148438 384.816406 1481 376.105469 1472.289062 L 273.113281 1369.300781 L 501.421875 1369.300781 C 552.164062 1369.300781 600.90625 1385.878906 636.785156 1415.78125 C 671.082031 1444.359375 690.742188 1482.929688 690.742188 1523.351562 C 690.742188 1563.769531 671.082031 1602.339844 636.785156 1630.921875 C 600.90625 1660.820312 552.164062 1677.398438 501.421875 1677.398438 C 367.398438 1677.398438 360.320312 1677.398438 360.320312 1677.398438 C 348 1677.398438 337.996094 1687.398438 337.996094 1699.71875 C 337.996094 1712.039062 348 1722.050781 360.320312 1722.050781 C 360.320312 1722.050781 367.398438 1722.050781 501.421875 1722.050781 C 562.941406 1722.050781 621.867188 1701.46875 665.367188 1665.210938 C 710.453125 1627.640625 735.386719 1576.488281 735.386719 1523.351562 C 735.386719 1470.210938 710.453125 1419.058594 665.367188 1381.488281 C 621.867188 1345.238281 562.941406 1324.660156 501.421875 1324.660156 L 273.113281 1324.660156 L 376.105469 1221.660156 C 384.816406 1212.949219 384.816406 1198.808594 376.105469 1190.101562 C 367.390625 1181.378906 353.246094 1181.378906 344.535156 1190.101562 L 203.4375 1331.191406 C 200.746094 1333.890625 198.882812 1337.089844 197.855469 1340.5 "/>
<path fill-rule="evenodd" fill="rgb(0%, 0%, 0%)" fill-opacity="1" d="M 403.636719 2418.71875 L 613.40625 2418.71875 C 656.195312 2418.71875 697.417969 2432.351562 727.675781 2457.566406 C 754.007812 2479.507812 769.773438 2508.777344 769.773438 2539.8125 L 769.773438 2539.816406 C 769.773438 2570.851562 754.007812 2600.121094 727.675781 2622.0625 C 697.417969 2647.277344 656.195312 2660.910156 613.40625 2660.910156 C 479.386719 2660.910156 472.304688 2660.910156 472.304688 2660.910156 L 472.304688 2771.464844 C 472.304688 2771.464844 479.386719 2771.464844 613.40625 2771.464844 C 682.882812 2771.464844 749.324219 2747.933594 798.449219 2706.996094 C 851.503906 2662.785156 880.328125 2602.339844 880.328125 2539.816406 C 880.328125 2539.816406 880.328125 2539.8125 880.328125 2539.8125 C 880.328125 2477.289062 851.503906 2416.84375 798.449219 2372.632812 C 749.324219 2331.695312 682.882812 2308.164062 613.40625 2308.164062 L 403.636719 2308.164062 L 403.636719 2212.15625 C 403.636719 2207.582031 400.996094 2203.421875 396.859375 2201.472656 C 392.71875 2199.523438 387.828125 2200.140625 384.304688 2203.058594 C 340.644531 2239.164062 235.539062 2326.082031 201.183594 2354.496094 C 198.460938 2356.746094 196.886719 2360.097656 196.898438 2363.632812 C 196.910156 2367.164062 198.503906 2370.507812 201.238281 2372.742188 C 235.667969 2400.859375 340.757812 2486.679688 384.359375 2522.289062 C 387.894531 2525.175781 392.769531 2525.765625 396.890625 2523.8125 C 401.011719 2521.855469 403.636719 2517.703125 403.636719 2513.144531 L 403.636719 2418.71875 "/>
<path fill-rule="evenodd" fill="rgb(0%, 0%, 0%)" fill-opacity="1" d="M 2409.929688 2471.898438 L 2575.75 2474.59375 C 2600.601562 2474.605469 2624.851562 2478.917969 2647.539062 2486.238281 C 2670.410156 2493.617188 2692.058594 2503.5 2710.148438 2517.777344 C 2728.039062 2529.597656 2743.808594 2542.25 2755.191406 2558.300781 C 2767.828125 2576.113281 2780.398438 2592.9375 2784.179688 2614.148438 L 2784.191406 2614.15625 C 2789.78125 2638.347656 2792.011719 2661.398438 2786.230469 2685.894531 C 2779.890625 2712.800781 2770.300781 2737.1875 2752.789062 2761.695312 C 2782.988281 2747.519531 2805.789062 2729.304688 2825.851562 2706.183594 C 2849.128906 2679.363281 2860.179688 2648.285156 2868.070312 2614.15625 L 2868.078125 2614.148438 C 2874.601562 2577.578125 2869.078125 2541.859375 2856.890625 2506.230469 C 2845.371094 2472.535156 2822.308594 2443.425781 2795.441406 2415.441406 C 2765.820312 2389.402344 2730.5 2368.835938 2691.710938 2355.199219 C 2655.378906 2342.421875 2615.878906 2336.382812 2575.75 2336.402344 L 2409.929688 2339.09375 L 2409.929688 2221.929688 C 2409.929688 2217.355469 2407.289062 2213.191406 2403.148438 2211.242188 C 2399.011719 2209.296875 2394.121094 2209.914062 2390.601562 2212.828125 C 2340.5 2254.257812 2207.648438 2364.125 2168.390625 2396.589844 C 2165.671875 2398.839844 2164.101562 2402.191406 2164.109375 2405.722656 C 2164.121094 2409.257812 2165.710938 2412.597656 2168.449219 2414.832031 C 2207.789062 2446.960938 2340.621094 2555.441406 2390.648438 2596.300781 C 2394.191406 2599.183594 2399.058594 2599.777344 2403.179688 2597.820312 C 2407.308594 2595.867188 2409.929688 2591.714844 2409.929688 2587.152344 L 2409.929688 2471.898438 "/>
<path fill-rule="evenodd" fill="rgb(0%, 0%, 0%)" fill-opacity="1" d="M 1345.269531 2418.71875 L 1580.71875 2418.71875 C 1623.511719 2418.71875 1664.730469 2432.351562 1694.988281 2457.566406 C 1721.320312 2479.507812 1737.089844 2508.777344 1737.089844 2539.8125 L 1737.089844 2539.816406 C 1737.089844 2570.851562 1721.320312 2600.121094 1694.988281 2622.0625 C 1664.730469 2647.277344 1623.511719 2660.910156 1580.71875 2660.910156 C 1446.699219 2660.910156 1439.621094 2660.910156 1439.621094 2660.910156 C 1409.109375 2660.910156 1384.339844 2685.679688 1384.339844 2716.1875 C 1384.339844 2746.695312 1409.109375 2771.464844 1439.621094 2771.464844 C 1439.621094 2771.464844 1446.699219 2771.464844 1580.71875 2771.464844 C 1650.199219 2771.464844 1716.640625 2747.933594 1765.769531 2706.996094 C 1818.820312 2662.785156 1847.640625 2602.339844 1847.640625 2539.816406 C 1847.640625 2539.816406 1847.640625 2539.8125 1847.640625 2539.8125 C 1847.640625 2477.289062 1818.820312 2416.84375 1765.769531 2372.632812 C 1716.640625 2331.695312 1650.199219 2308.164062 1580.71875 2308.164062 L 1345.128906 2308.164062 C 1355.121094 2269.300781 1370.949219 2234.394531 1370.949219 2212.15625 C 1370.949219 2207.582031 1368.308594 2203.421875 1364.171875 2201.472656 C 1360.039062 2199.523438 1355.140625 2200.140625 1351.621094 2203.058594 C 1307.960938 2239.164062 1202.859375 2326.082031 1168.5 2354.496094 C 1165.769531 2356.746094 1164.199219 2360.097656 1164.210938 2363.632812 C 1164.230469 2367.164062 1165.820312 2370.507812 1168.550781 2372.742188 C 1202.980469 2400.859375 1308.070312 2486.679688 1351.679688 2522.289062 C 1355.210938 2525.175781 1360.089844 2525.765625 1364.210938 2523.8125 C 1368.328125 2521.855469 1370.949219 2517.703125 1370.949219 2513.144531 C 1370.949219 2491.253906 1355.25 2456.980469 1345.269531 2418.71875 "/>
<path fill-rule="evenodd" fill="rgb(0%, 0%, 0%)" fill-opacity="1" d="M 3399.851562 2539.65625 C 3416.640625 2540.636719 3437.441406 2541.601562 3459.5 2542.027344 C 3712.558594 2546.921875 3745.480469 2615.859375 3803.101562 2733.445312 C 3803.101562 2733.449219 3803.101562 2733.453125 3803.101562 2733.453125 C 3803.101562 2733.453125 3794.621094 2367.882812 3459.210938 2354.183594 C 3446.398438 2353.660156 3420.988281 2354.496094 3399.160156 2355.441406 C 3411.390625 2314.210938 3426.25 2277.863281 3426.25 2253.453125 C 3426.25 2247.609375 3422.890625 2242.289062 3417.621094 2239.796875 C 3412.359375 2237.308594 3406.140625 2238.097656 3401.660156 2241.824219 C 3346.109375 2287.976562 3212.421875 2399.078125 3168.71875 2435.398438 C 3165.25 2438.277344 3163.25 2442.5625 3163.269531 2447.078125 C 3163.28125 2451.59375 3165.308594 2455.863281 3168.789062 2458.722656 C 3212.578125 2494.664062 3346.261719 2604.363281 3401.730469 2649.882812 C 3406.21875 2653.566406 3412.421875 2654.324219 3417.660156 2651.828125 C 3422.910156 2649.328125 3426.25 2644.019531 3426.25 2638.191406 C 3426.25 2614.511719 3411.941406 2579.492188 3399.851562 2539.65625 "/>
<path fill-rule="evenodd" fill="rgb(0%, 0%, 0%)" fill-opacity="1" d="M 1246.140625 1469.941406 L 1195.261719 1419.050781 C 1186.539062 1410.339844 1172.398438 1410.339844 1163.691406 1419.050781 C 1154.980469 1427.761719 1154.980469 1441.910156 1163.691406 1450.621094 L 1252.199219 1539.140625 C 1260.921875 1547.859375 1275.058594 1547.859375 1283.769531 1539.140625 L 1372.289062 1450.621094 C 1381 1441.910156 1381 1427.761719 1372.289062 1419.050781 C 1363.578125 1410.339844 1349.429688 1410.339844 1340.71875 1419.050781 L 1290.808594 1468.96875 C 1290.480469 1463.621094 1290.308594 1458.230469 1290.308594 1452.800781 C 1290.308594 1309.378906 1406.761719 1192.929688 1550.191406 1192.929688 C 1693.609375 1192.929688 1810.058594 1309.378906 1810.058594 1452.800781 C 1810.058594 1596.230469 1693.609375 1712.679688 1550.191406 1712.679688 C 1537.871094 1712.679688 1527.859375 1722.679688 1527.859375 1735 C 1527.859375 1747.320312 1537.871094 1757.320312 1550.191406 1757.320312 C 1718.25 1757.320312 1854.699219 1620.871094 1854.699219 1452.800781 C 1854.699219 1284.738281 1718.25 1148.28125 1550.191406 1148.28125 C 1382.121094 1148.28125 1245.671875 1284.738281 1245.671875 1452.800781 C 1245.671875 1458.550781 1245.828125 1464.261719 1246.140625 1469.941406 "/>
<path fill-rule="evenodd" fill="rgb(0%, 0%, 0%)" fill-opacity="1" d="M 2274.011719 1249.929688 L 2274.011719 1177.96875 C 2274.011719 1165.648438 2264.011719 1155.640625 2251.691406 1155.640625 C 2239.371094 1155.640625 2229.371094 1165.648438 2229.371094 1177.96875 L 2229.371094 1303.148438 C 2229.371094 1315.46875 2239.359375 1325.46875 2251.691406 1325.46875 L 2376.871094 1325.46875 C 2389.191406 1325.46875 2399.191406 1315.46875 2399.191406 1303.148438 C 2399.191406 1290.828125 2389.191406 1280.820312 2376.871094 1280.820312 L 2306.28125 1280.820312 C 2309.828125 1276.808594 2313.519531 1272.878906 2317.359375 1269.039062 C 2418.78125 1167.628906 2583.460938 1167.628906 2684.878906 1269.039062 C 2786.300781 1370.460938 2786.300781 1535.140625 2684.878906 1636.558594 C 2583.460938 1737.980469 2418.78125 1737.980469 2317.359375 1636.558594 C 2308.648438 1627.851562 2294.511719 1627.851562 2285.789062 1636.558594 C 2277.078125 1645.269531 2277.078125 1659.421875 2285.789062 1668.128906 C 2404.640625 1786.96875 2597.609375 1786.96875 2716.449219 1668.128906 C 2835.289062 1549.289062 2835.289062 1356.320312 2716.449219 1237.480469 C 2597.609375 1118.628906 2404.640625 1118.628906 2285.789062 1237.480469 C 2281.730469 1241.539062 2277.800781 1245.691406 2274.011719 1249.929688 "/>
<path fill-rule="evenodd" fill="rgb(0%, 0%, 0%)" fill-opacity="1" d="M 3279.398438 1365.078125 C 3278.910156 1366.71875 3278.589844 1368.441406 3278.488281 1370.21875 L 3278.480469 1370.410156 L 3278.46875 1370.480469 L 3278.46875 1370.53125 L 3278.460938 1370.699219 L 3278.460938 1370.828125 L 3278.449219 1370.980469 L 3278.449219 1371.28125 C 3278.449219 1371.371094 3278.449219 1371.46875 3278.449219 1371.558594 L 3278.449219 1372.128906 L 3278.460938 1372.289062 L 3278.460938 1372.421875 L 3278.46875 1372.589844 L 3278.46875 1372.640625 L 3278.480469 1372.710938 L 3278.488281 1372.890625 L 3278.488281 1372.898438 C 3278.589844 1374.671875 3278.910156 1376.390625 3279.398438 1378.039062 C 3280.429688 1381.441406 3282.289062 1384.648438 3284.988281 1387.339844 L 3410.5 1512.859375 C 3419.210938 1521.570312 3433.359375 1521.570312 3442.070312 1512.859375 C 3450.78125 1504.148438 3450.78125 1490 3442.070312 1481.289062 L 3354.660156 1393.878906 L 3636.78125 1393.878906 C 3669.050781 1393.878906 3700 1406.699219 3722.820312 1429.519531 C 3745.640625 1452.339844 3758.460938 1483.289062 3758.460938 1515.558594 C 3758.460938 1582.761719 3703.980469 1637.238281 3636.78125 1637.238281 C 3564.78125 1637.238281 3540.171875 1637.238281 3540.171875 1637.238281 C 3527.851562 1637.238281 3517.851562 1647.238281 3517.851562 1659.558594 C 3517.851562 1671.878906 3527.851562 1681.890625 3540.171875 1681.890625 C 3540.171875 1681.890625 3564.78125 1681.890625 3636.78125 1681.890625 C 3728.640625 1681.890625 3803.101562 1607.421875 3803.101562 1515.558594 C 3803.101562 1471.449219 3785.578125 1429.140625 3754.390625 1397.949219 C 3723.191406 1366.761719 3680.890625 1349.238281 3636.78125 1349.238281 L 3354.660156 1349.238281 L 3442.070312 1261.820312 C 3450.78125 1253.109375 3450.78125 1238.96875 3442.070312 1230.261719 C 3433.359375 1221.539062 3419.210938 1221.539062 3410.5 1230.261719 L 3284.988281 1355.769531 C 3282.289062 1358.46875 3280.429688 1361.671875 3279.398438 1365.078125 "/>
<path fill-rule="evenodd" fill="rgb(0%, 0%, 0%)" fill-opacity="1" d="M 247.707031 368.589844 L 580.917969 368.589844 C 623.746094 368.589844 664.820312 385.609375 695.101562 415.890625 C 725.386719 446.171875 742.398438 487.238281 742.398438 530.070312 C 742.398438 530.078125 742.398438 530.089844 742.398438 530.101562 C 742.398438 572.921875 725.386719 614 695.101562 644.28125 C 664.820312 674.558594 623.746094 691.578125 580.917969 691.578125 C 393.023438 691.578125 211.78125 691.578125 211.78125 691.578125 C 203.570312 691.578125 196.902344 698.238281 196.902344 706.460938 C 196.902344 714.671875 203.570312 721.339844 211.78125 721.339844 C 211.78125 721.339844 393.023438 721.339844 580.917969 721.339844 C 631.640625 721.339844 680.28125 701.191406 716.148438 665.328125 C 752.011719 629.460938 772.160156 580.820312 772.160156 530.101562 C 772.160156 530.089844 772.160156 530.078125 772.160156 530.070312 C 772.160156 479.351562 752.011719 430.710938 716.148438 394.839844 C 680.28125 358.980469 631.640625 338.828125 580.917969 338.828125 L 247.707031 338.828125 L 332.601562 253.941406 C 338.410156 248.128906 338.410156 238.699219 332.601562 232.890625 C 326.796875 227.078125 317.363281 227.078125 311.558594 232.890625 L 201.257812 343.191406 C 195.445312 349 195.445312 358.421875 201.257812 364.238281 L 311.558594 474.53125 C 317.363281 480.339844 326.796875 480.339844 332.601562 474.53125 C 338.410156 468.730469 338.410156 459.300781 332.601562 453.488281 L 247.707031 368.589844 "/>
<path fill-rule="evenodd" fill="rgb(0%, 0%, 0%)" fill-opacity="1" d="M 2322.699219 319.949219 L 2322.699219 247.410156 L 2222.421875 334.828125 L 2322.699219 422.261719 L 2322.699219 349.71875 L 2621.289062 349.71875 C 2664.121094 349.71875 2705.191406 366.730469 2735.46875 397.011719 C 2765.761719 427.300781 2782.769531 468.371094 2782.769531 511.191406 C 2782.769531 511.199219 2782.769531 511.210938 2782.769531 511.21875 C 2782.769531 554.050781 2765.761719 595.121094 2735.46875 625.398438 C 2705.191406 655.691406 2664.121094 672.699219 2621.289062 672.699219 C 2433.398438 672.699219 2252.148438 672.699219 2252.148438 672.699219 L 2252.148438 702.460938 C 2252.148438 702.460938 2433.398438 702.460938 2621.289062 702.460938 C 2672.011719 702.460938 2720.648438 682.308594 2756.519531 646.449219 C 2792.378906 610.578125 2812.53125 561.941406 2812.53125 511.21875 C 2812.53125 511.210938 2812.53125 511.199219 2812.53125 511.191406 C 2812.53125 460.46875 2792.378906 411.828125 2756.519531 375.96875 C 2720.648438 340.101562 2672.011719 319.949219 2621.289062 319.949219 L 2322.699219 319.949219 "/>
<path fill-rule="evenodd" fill="rgb(0%, 0%, 0%)" fill-opacity="1" d="M 1263.828125 467.578125 L 1203.148438 360.839844 C 1199.089844 353.699219 1189.988281 351.199219 1182.851562 355.25 C 1175.710938 359.308594 1173.210938 368.410156 1177.269531 375.550781 L 1254.371094 511.148438 C 1255.46875 513.089844 1256.949219 514.691406 1258.648438 515.910156 L 1258.671875 515.921875 L 1258.691406 515.929688 L 1258.828125 516.03125 L 1258.929688 516.101562 L 1258.960938 516.121094 L 1259.019531 516.160156 L 1259.128906 516.238281 L 1259.210938 516.289062 L 1259.269531 516.320312 L 1259.351562 516.371094 L 1259.441406 516.429688 L 1259.5 516.46875 L 1259.578125 516.519531 L 1259.679688 516.578125 L 1259.738281 516.609375 L 1259.800781 516.640625 L 1259.898438 516.710938 L 1260.011719 516.769531 L 1260.058594 516.789062 L 1260.101562 516.820312 L 1260.21875 516.878906 L 1260.339844 516.949219 L 1260.371094 516.960938 L 1260.410156 516.980469 L 1260.550781 517.058594 L 1260.671875 517.109375 L 1260.691406 517.128906 L 1260.71875 517.140625 L 1260.878906 517.21875 L 1260.988281 517.269531 L 1261.011719 517.28125 L 1261.039062 517.300781 L 1261.21875 517.378906 L 1261.320312 517.421875 L 1261.339844 517.429688 L 1261.378906 517.449219 L 1261.558594 517.53125 L 1261.648438 517.558594 L 1261.671875 517.570312 L 1261.71875 517.589844 L 1261.910156 517.671875 L 1261.980469 517.691406 L 1262.078125 517.730469 L 1262.269531 517.800781 L 1262.320312 517.808594 L 1262.339844 517.820312 L 1262.441406 517.859375 L 1262.628906 517.921875 L 1262.660156 517.929688 L 1262.671875 517.941406 L 1262.839844 517.988281 L 1262.988281 518.039062 L 1263 518.039062 C 1263.121094 518.078125 1263.238281 518.109375 1263.359375 518.140625 L 1263.699219 518.230469 L 1263.710938 518.238281 L 1263.730469 518.238281 L 1263.878906 518.28125 L 1264.050781 518.320312 L 1264.070312 518.320312 L 1264.101562 518.328125 L 1264.289062 518.371094 L 1264.398438 518.390625 L 1264.421875 518.390625 L 1264.46875 518.410156 L 1264.671875 518.441406 L 1264.75 518.460938 L 1264.769531 518.460938 L 1264.839844 518.46875 L 1265.050781 518.5 L 1265.101562 518.511719 L 1265.128906 518.519531 L 1265.21875 518.53125 L 1265.421875 518.558594 L 1265.480469 518.558594 L 1265.589844 518.578125 L 1265.78125 518.601562 L 1265.808594 518.601562 L 1265.839844 518.609375 L 1265.960938 518.621094 L 1266.140625 518.628906 L 1266.171875 518.628906 L 1266.199219 518.640625 L 1266.328125 518.648438 L 1266.488281 518.660156 L 1266.558594 518.660156 L 1266.699219 518.671875 L 1266.941406 518.671875 L 1267.070312 518.679688 L 1267.609375 518.679688 L 1267.710938 518.671875 L 1267.871094 518.671875 L 1267.96875 518.660156 L 1268.101562 518.660156 L 1268.171875 518.648438 L 1268.210938 518.648438 L 1268.328125 518.640625 L 1268.511719 518.628906 L 1268.539062 518.628906 C 1270.628906 518.460938 1272.71875 517.839844 1274.660156 516.730469 L 1410.261719 439.640625 C 1417.398438 435.578125 1419.898438 426.480469 1415.839844 419.339844 C 1411.789062 412.199219 1402.691406 409.699219 1395.550781 413.761719 L 1294.609375 471.148438 C 1346.988281 351.550781 1480.71875 285.25 1610.289062 320.898438 C 1752.550781 360.03125 1836.269531 507.289062 1797.140625 649.539062 C 1794.960938 657.460938 1799.621094 665.660156 1807.539062 667.828125 C 1815.460938 670.011719 1823.660156 665.351562 1825.828125 657.429688 C 1869.320312 499.339844 1776.28125 335.691406 1618.191406 292.199219 C 1471.179688 251.761719 1319.359375 329.378906 1263.828125 467.578125 "/>
<path fill-rule="evenodd" fill="rgb(0%, 0%, 0%)" fill-opacity="1" d="M 3350.199219 312.519531 L 3348.839844 266.25 C 3348.621094 258.820312 3342.421875 252.96875 3334.988281 253.191406 C 3327.570312 253.410156 3321.71875 259.609375 3321.929688 267.039062 L 3324.328125 348.449219 C 3324.539062 355.878906 3330.738281 361.730469 3338.171875 361.511719 L 3419.578125 359.121094 C 3427.011719 358.898438 3432.859375 352.691406 3432.640625 345.269531 C 3432.421875 337.839844 3426.21875 331.988281 3418.789062 332.210938 L 3366.960938 333.738281 C 3410.421875 291.949219 3469.449219 266.25 3534.441406 266.25 C 3667.859375 266.25 3776.191406 374.570312 3776.191406 508 C 3776.191406 641.421875 3667.859375 749.75 3534.441406 749.75 C 3401.011719 749.75 3292.691406 641.421875 3292.691406 508 C 3292.691406 500.570312 3286.660156 494.539062 3279.230469 494.539062 C 3271.800781 494.539062 3265.769531 500.570312 3265.769531 508 C 3265.769531 656.28125 3386.160156 776.660156 3534.441406 776.660156 C 3682.71875 776.660156 3803.101562 656.28125 3803.101562 508 C 3803.101562 359.71875 3682.71875 239.328125 3534.441406 239.328125 C 3463.148438 239.328125 3398.308594 267.160156 3350.199219 312.519531 "/>
</svg>
